<mxfile host="app.diagrams.net" modified="2024-06-19T07:28:48.570Z" agent="Mozilla/5.0 (Windows NT 10.0; Win64; x64) AppleWebKit/537.36 (KHTML, like Gecko) Chrome/126.0.0.0 Safari/537.36" etag="a_ucHO-5A_j23oUbl9Fu" version="24.5.5" type="google">
  <diagram id="kgpKYQtTHZ0yAKxKKP6v" name="Page-1">
    <mxGraphModel grid="1" page="1" gridSize="10" guides="1" tooltips="1" connect="1" arrows="1" fold="1" pageScale="1" pageWidth="850" pageHeight="1100" math="0" shadow="0">
      <root>
        <mxCell id="0" />
        <mxCell id="1" parent="0" />
        <mxCell id="qGvWgmmT0ON_BAvx0_Q7-1" value="" style="rounded=0;whiteSpace=wrap;html=1;" vertex="1" parent="1">
          <mxGeometry x="-310" y="-240" width="1350" height="3020" as="geometry" />
        </mxCell>
        <mxCell id="rtPE3BVUv4YDp1QE3gb5-323" value="" style="ellipse;whiteSpace=wrap;html=1;aspect=fixed;rounded=1;" vertex="1" parent="1">
          <mxGeometry x="170" y="2680" width="50" height="50" as="geometry" />
        </mxCell>
        <mxCell id="rtPE3BVUv4YDp1QE3gb5-3" value="" style="endArrow=none;html=1;rounded=1;endSize=15;entryX=0.556;entryY=1;entryDx=0;entryDy=0;exitX=0.556;exitY=0.002;exitDx=0;exitDy=0;exitPerimeter=0;entryPerimeter=0;" edge="1" parent="1">
          <mxGeometry width="50" height="50" relative="1" as="geometry">
            <mxPoint x="419.9999999999999" y="-233.96000000000004" as="sourcePoint" />
            <mxPoint x="419.9999999999999" y="2780" as="targetPoint" />
          </mxGeometry>
        </mxCell>
        <mxCell id="rtPE3BVUv4YDp1QE3gb5-4" value="&lt;font style=&quot;font-size: 20px;&quot;&gt;User&lt;/font&gt;" style="text;strokeColor=none;align=center;fillColor=none;html=1;verticalAlign=middle;whiteSpace=wrap;rounded=0;fontStyle=1;fontSize=20;" vertex="1" parent="1">
          <mxGeometry x="5" y="-230" width="60" height="41" as="geometry" />
        </mxCell>
        <mxCell id="rtPE3BVUv4YDp1QE3gb5-5" value="&lt;font style=&quot;font-size: 20px;&quot;&gt;System&lt;/font&gt;" style="text;strokeColor=none;align=center;fillColor=none;html=1;verticalAlign=middle;whiteSpace=wrap;rounded=0;fontStyle=1;fontSize=20;" vertex="1" parent="1">
          <mxGeometry x="695" y="-230" width="60" height="41" as="geometry" />
        </mxCell>
        <mxCell id="rtPE3BVUv4YDp1QE3gb5-6" value="" style="endArrow=none;html=1;rounded=1;entryX=0.999;entryY=0.028;entryDx=0;entryDy=0;entryPerimeter=0;exitX=-0.004;exitY=0.027;exitDx=0;exitDy=0;exitPerimeter=0;labelBorderColor=default;" edge="1" parent="1">
          <mxGeometry width="50" height="50" relative="1" as="geometry">
            <mxPoint x="-314.05000000000007" y="-189.00000000000003" as="sourcePoint" />
            <mxPoint x="1040" y="-185.98000000000005" as="targetPoint" />
          </mxGeometry>
        </mxCell>
        <mxCell id="rtPE3BVUv4YDp1QE3gb5-7" value="" style="ellipse;whiteSpace=wrap;html=1;aspect=fixed;rounded=1;fillColor=#000000;" vertex="1" parent="1">
          <mxGeometry x="245" y="-140" width="30" height="30" as="geometry" />
        </mxCell>
        <mxCell id="rtPE3BVUv4YDp1QE3gb5-8" value="Start App" style="rounded=1;whiteSpace=wrap;html=1;" vertex="1" parent="1">
          <mxGeometry x="210" y="-90" width="100" height="30" as="geometry" />
        </mxCell>
        <mxCell id="rtPE3BVUv4YDp1QE3gb5-9" value="Display welcome page" style="rounded=1;whiteSpace=wrap;html=1;" vertex="1" parent="1">
          <mxGeometry x="590" y="-90" width="100" height="30" as="geometry" />
        </mxCell>
        <mxCell id="rtPE3BVUv4YDp1QE3gb5-11" value="" style="endArrow=classic;html=1;rounded=1;exitX=1;exitY=0.5;exitDx=0;exitDy=0;entryX=0.5;entryY=1;entryDx=0;entryDy=0;edgeStyle=orthogonalEdgeStyle;" edge="1" parent="1" source="rtPE3BVUv4YDp1QE3gb5-8" target="rtPE3BVUv4YDp1QE3gb5-281">
          <mxGeometry width="50" height="50" relative="1" as="geometry">
            <mxPoint x="550" y="50" as="sourcePoint" />
            <mxPoint x="600" as="targetPoint" />
          </mxGeometry>
        </mxCell>
        <mxCell id="rtPE3BVUv4YDp1QE3gb5-12" value="" style="endArrow=classic;html=1;rounded=1;exitX=0.5;exitY=1;exitDx=0;exitDy=0;entryX=1;entryY=0.5;entryDx=0;entryDy=0;edgeStyle=orthogonalEdgeStyle;" edge="1" parent="1" source="rtPE3BVUv4YDp1QE3gb5-9" target="rtPE3BVUv4YDp1QE3gb5-16">
          <mxGeometry width="50" height="50" relative="1" as="geometry">
            <mxPoint x="320" y="-55" as="sourcePoint" />
            <mxPoint x="390" y="-15" as="targetPoint" />
          </mxGeometry>
        </mxCell>
        <mxCell id="rtPE3BVUv4YDp1QE3gb5-14" value="Display login page" style="rounded=1;whiteSpace=wrap;html=1;" vertex="1" parent="1">
          <mxGeometry x="450" y="10" width="100" height="30" as="geometry" />
        </mxCell>
        <mxCell id="rtPE3BVUv4YDp1QE3gb5-15" value="" style="endArrow=classic;html=1;rounded=1;entryX=0.5;entryY=0;entryDx=0;entryDy=0;exitX=0.5;exitY=1;exitDx=0;exitDy=0;" edge="1" parent="1" source="rtPE3BVUv4YDp1QE3gb5-7" target="rtPE3BVUv4YDp1QE3gb5-8">
          <mxGeometry width="50" height="50" relative="1" as="geometry">
            <mxPoint x="260" y="-95" as="sourcePoint" />
            <mxPoint x="440" y="-100" as="targetPoint" />
          </mxGeometry>
        </mxCell>
        <mxCell id="rtPE3BVUv4YDp1QE3gb5-16" value="Press Start" style="rhombus;whiteSpace=wrap;html=1;rounded=1;" vertex="1" parent="1">
          <mxGeometry x="340" y="-50" width="60" height="60" as="geometry" />
        </mxCell>
        <mxCell id="rtPE3BVUv4YDp1QE3gb5-18" value="Yes" style="endArrow=classic;html=1;rounded=1;exitX=0;exitY=0.5;exitDx=0;exitDy=0;edgeStyle=orthogonalEdgeStyle;entryX=0;entryY=0.5;entryDx=0;entryDy=0;" edge="1" parent="1" source="rtPE3BVUv4YDp1QE3gb5-16" target="rtPE3BVUv4YDp1QE3gb5-14">
          <mxGeometry width="50" height="50" relative="1" as="geometry">
            <mxPoint x="330" y="-10" as="sourcePoint" />
            <mxPoint x="220" y="25" as="targetPoint" />
          </mxGeometry>
        </mxCell>
        <mxCell id="rtPE3BVUv4YDp1QE3gb5-20" value="" style="ellipse;whiteSpace=wrap;html=1;rounded=1;rotation=90;fillColor=#000000;" vertex="1" parent="1">
          <mxGeometry x="360" y="60" width="50" height="20" as="geometry" />
        </mxCell>
        <mxCell id="rtPE3BVUv4YDp1QE3gb5-21" value="Press&amp;nbsp;&lt;div&gt;Login&lt;/div&gt;" style="rhombus;whiteSpace=wrap;html=1;rounded=1;" vertex="1" parent="1">
          <mxGeometry x="225" y="10" width="70" height="70" as="geometry" />
        </mxCell>
        <mxCell id="rtPE3BVUv4YDp1QE3gb5-22" value="Link to Register Page" style="rhombus;whiteSpace=wrap;html=1;rounded=1;" vertex="1" parent="1">
          <mxGeometry x="225" y="90" width="70" height="70" as="geometry" />
        </mxCell>
        <mxCell id="rtPE3BVUv4YDp1QE3gb5-23" value="" style="endArrow=classic;html=1;rounded=1;exitX=0.5;exitY=1;exitDx=0;exitDy=0;entryX=0.5;entryY=0;entryDx=0;entryDy=0;edgeStyle=orthogonalEdgeStyle;" edge="1" parent="1" source="rtPE3BVUv4YDp1QE3gb5-14" target="rtPE3BVUv4YDp1QE3gb5-20">
          <mxGeometry width="50" height="50" relative="1" as="geometry">
            <mxPoint x="570" y="90" as="sourcePoint" />
            <mxPoint x="430" y="120" as="targetPoint" />
          </mxGeometry>
        </mxCell>
        <mxCell id="rtPE3BVUv4YDp1QE3gb5-24" value="" style="endArrow=classic;html=1;rounded=1;exitX=0.5;exitY=1;exitDx=0;exitDy=0;entryX=1;entryY=0.5;entryDx=0;entryDy=0;edgeStyle=orthogonalEdgeStyle;" edge="1" parent="1" source="rtPE3BVUv4YDp1QE3gb5-20" target="rtPE3BVUv4YDp1QE3gb5-21">
          <mxGeometry width="50" height="50" relative="1" as="geometry">
            <mxPoint x="437.5" y="140" as="sourcePoint" />
            <mxPoint x="332.5" y="185" as="targetPoint" />
          </mxGeometry>
        </mxCell>
        <mxCell id="rtPE3BVUv4YDp1QE3gb5-25" value="" style="endArrow=classic;html=1;rounded=1;exitX=0.5;exitY=1;exitDx=0;exitDy=0;entryX=1;entryY=0.5;entryDx=0;entryDy=0;edgeStyle=orthogonalEdgeStyle;" edge="1" parent="1" source="rtPE3BVUv4YDp1QE3gb5-20" target="rtPE3BVUv4YDp1QE3gb5-22">
          <mxGeometry width="50" height="50" relative="1" as="geometry">
            <mxPoint x="385" y="80" as="sourcePoint" />
            <mxPoint x="310" y="105" as="targetPoint" />
          </mxGeometry>
        </mxCell>
        <mxCell id="rtPE3BVUv4YDp1QE3gb5-26" value="Display Register Page" style="rounded=1;whiteSpace=wrap;html=1;" vertex="1" parent="1">
          <mxGeometry x="450" y="160" width="100" height="30" as="geometry" />
        </mxCell>
        <mxCell id="rtPE3BVUv4YDp1QE3gb5-27" value="Yes" style="endArrow=classic;html=1;rounded=1;exitX=0.5;exitY=1;exitDx=0;exitDy=0;entryX=0;entryY=0.5;entryDx=0;entryDy=0;edgeStyle=orthogonalEdgeStyle;" edge="1" parent="1" source="rtPE3BVUv4YDp1QE3gb5-22" target="rtPE3BVUv4YDp1QE3gb5-26">
          <mxGeometry width="50" height="50" relative="1" as="geometry">
            <mxPoint x="385" y="80" as="sourcePoint" />
            <mxPoint x="305" y="175" as="targetPoint" />
          </mxGeometry>
        </mxCell>
        <mxCell id="rtPE3BVUv4YDp1QE3gb5-29" value="Link to Login&lt;div&gt;&amp;nbsp;Page&lt;/div&gt;" style="rhombus;whiteSpace=wrap;html=1;rounded=1;" vertex="1" parent="1">
          <mxGeometry x="225" y="260" width="70" height="70" as="geometry" />
        </mxCell>
        <mxCell id="rtPE3BVUv4YDp1QE3gb5-30" value="Press&amp;nbsp;&lt;div&gt;Register&lt;/div&gt;" style="rhombus;whiteSpace=wrap;html=1;rounded=1;" vertex="1" parent="1">
          <mxGeometry x="230" y="190" width="70" height="70" as="geometry" />
        </mxCell>
        <mxCell id="rtPE3BVUv4YDp1QE3gb5-31" value="" style="ellipse;whiteSpace=wrap;html=1;rounded=1;rotation=90;fillColor=#000000;" vertex="1" parent="1">
          <mxGeometry x="370" y="240" width="50" height="20" as="geometry" />
        </mxCell>
        <mxCell id="rtPE3BVUv4YDp1QE3gb5-32" value="" style="endArrow=classic;html=1;rounded=1;exitX=0.5;exitY=1;exitDx=0;exitDy=0;entryX=0.5;entryY=0;entryDx=0;entryDy=0;edgeStyle=orthogonalEdgeStyle;" edge="1" parent="1" source="rtPE3BVUv4YDp1QE3gb5-26" target="rtPE3BVUv4YDp1QE3gb5-31">
          <mxGeometry width="50" height="50" relative="1" as="geometry">
            <mxPoint x="480" y="230" as="sourcePoint" />
            <mxPoint x="410" y="310" as="targetPoint" />
          </mxGeometry>
        </mxCell>
        <mxCell id="rtPE3BVUv4YDp1QE3gb5-33" value="" style="endArrow=classic;html=1;rounded=1;exitX=0.5;exitY=1;exitDx=0;exitDy=0;edgeStyle=orthogonalEdgeStyle;" edge="1" parent="1" source="rtPE3BVUv4YDp1QE3gb5-31" target="rtPE3BVUv4YDp1QE3gb5-30">
          <mxGeometry width="50" height="50" relative="1" as="geometry">
            <mxPoint x="380" y="255" as="sourcePoint" />
            <mxPoint x="300" y="240" as="targetPoint" />
          </mxGeometry>
        </mxCell>
        <mxCell id="rtPE3BVUv4YDp1QE3gb5-34" value="" style="endArrow=classic;html=1;rounded=1;exitX=0.5;exitY=1;exitDx=0;exitDy=0;edgeStyle=orthogonalEdgeStyle;entryX=1;entryY=0.5;entryDx=0;entryDy=0;" edge="1" parent="1" source="rtPE3BVUv4YDp1QE3gb5-31" target="rtPE3BVUv4YDp1QE3gb5-29">
          <mxGeometry width="50" height="50" relative="1" as="geometry">
            <mxPoint x="395" y="260" as="sourcePoint" />
            <mxPoint x="310" y="235" as="targetPoint" />
          </mxGeometry>
        </mxCell>
        <mxCell id="rtPE3BVUv4YDp1QE3gb5-35" value="Yes" style="endArrow=classic;html=1;rounded=1;exitX=0.5;exitY=1;exitDx=0;exitDy=0;entryX=1;entryY=0.5;entryDx=0;entryDy=0;edgeStyle=orthogonalEdgeStyle;" edge="1" parent="1" source="rtPE3BVUv4YDp1QE3gb5-29" target="rtPE3BVUv4YDp1QE3gb5-14">
          <mxGeometry x="-0.6259" width="50" height="50" relative="1" as="geometry">
            <mxPoint x="270" y="170" as="sourcePoint" />
            <mxPoint x="460" y="185" as="targetPoint" />
            <Array as="points">
              <mxPoint x="590" y="330" />
              <mxPoint x="590" y="25" />
            </Array>
            <mxPoint as="offset" />
          </mxGeometry>
        </mxCell>
        <mxCell id="rtPE3BVUv4YDp1QE3gb5-36" value="Display List Character Page" style="rounded=1;whiteSpace=wrap;html=1;" vertex="1" parent="1">
          <mxGeometry x="450" y="350" width="100" height="30" as="geometry" />
        </mxCell>
        <mxCell id="rtPE3BVUv4YDp1QE3gb5-37" value="Yes" style="endArrow=classic;html=1;rounded=1;exitX=0;exitY=0.5;exitDx=0;exitDy=0;edgeStyle=orthogonalEdgeStyle;entryX=0;entryY=0.5;entryDx=0;entryDy=0;" edge="1" parent="1" source="rtPE3BVUv4YDp1QE3gb5-30" target="rtPE3BVUv4YDp1QE3gb5-36">
          <mxGeometry x="0.2273" width="50" height="50" relative="1" as="geometry">
            <mxPoint x="225" y="385" as="sourcePoint" />
            <mxPoint x="415" y="400" as="targetPoint" />
            <Array as="points">
              <mxPoint x="200" y="225" />
              <mxPoint x="200" y="365" />
            </Array>
            <mxPoint as="offset" />
          </mxGeometry>
        </mxCell>
        <mxCell id="rtPE3BVUv4YDp1QE3gb5-38" value="Press&amp;nbsp;&lt;div&gt;back&amp;nbsp;&lt;/div&gt;&lt;div&gt;button&lt;/div&gt;" style="rhombus;whiteSpace=wrap;html=1;rounded=1;" vertex="1" parent="1">
          <mxGeometry x="130" y="60" width="70" height="70" as="geometry" />
        </mxCell>
        <mxCell id="rtPE3BVUv4YDp1QE3gb5-39" value="" style="endArrow=classic;html=1;rounded=1;exitX=0.5;exitY=1;exitDx=0;exitDy=0;entryX=1;entryY=0.5;entryDx=0;entryDy=0;edgeStyle=orthogonalEdgeStyle;" edge="1" parent="1" source="rtPE3BVUv4YDp1QE3gb5-20" target="rtPE3BVUv4YDp1QE3gb5-38">
          <mxGeometry width="50" height="50" relative="1" as="geometry">
            <mxPoint x="385" y="80" as="sourcePoint" />
            <mxPoint x="305" y="65" as="targetPoint" />
            <Array as="points">
              <mxPoint x="293" y="70" />
              <mxPoint x="293" y="90" />
              <mxPoint x="210" y="90" />
            </Array>
          </mxGeometry>
        </mxCell>
        <mxCell id="rtPE3BVUv4YDp1QE3gb5-40" value="" style="endArrow=classic;html=1;rounded=1;exitX=0.5;exitY=1;exitDx=0;exitDy=0;edgeStyle=orthogonalEdgeStyle;" edge="1" parent="1" source="rtPE3BVUv4YDp1QE3gb5-31" target="rtPE3BVUv4YDp1QE3gb5-38">
          <mxGeometry width="50" height="50" relative="1" as="geometry">
            <mxPoint x="395" y="260" as="sourcePoint" />
            <mxPoint x="310" y="235" as="targetPoint" />
            <Array as="points">
              <mxPoint x="385" y="260" />
              <mxPoint x="165" y="260" />
            </Array>
          </mxGeometry>
        </mxCell>
        <mxCell id="rtPE3BVUv4YDp1QE3gb5-41" value="Yes" style="endArrow=classic;html=1;rounded=1;exitX=0.5;exitY=0;exitDx=0;exitDy=0;entryX=0.5;entryY=1;entryDx=0;entryDy=0;edgeStyle=orthogonalEdgeStyle;" edge="1" parent="1" source="rtPE3BVUv4YDp1QE3gb5-38" target="rtPE3BVUv4YDp1QE3gb5-281">
          <mxGeometry x="-0.779" width="50" height="50" relative="1" as="geometry">
            <mxPoint x="550" y="-40" as="sourcePoint" />
            <mxPoint x="410" y="-10" as="targetPoint" />
            <Array as="points">
              <mxPoint x="165" y="-50" />
            </Array>
            <mxPoint as="offset" />
          </mxGeometry>
        </mxCell>
        <mxCell id="rtPE3BVUv4YDp1QE3gb5-42" value="Press&amp;nbsp;&lt;div&gt;Save&lt;/div&gt;" style="rhombus;whiteSpace=wrap;html=1;rounded=1;" vertex="1" parent="1">
          <mxGeometry x="275" y="410" width="70" height="70" as="geometry" />
        </mxCell>
        <mxCell id="rtPE3BVUv4YDp1QE3gb5-43" value="" style="endArrow=classic;html=1;rounded=1;exitX=1;exitY=0.5;exitDx=0;exitDy=0;entryX=1;entryY=0.5;entryDx=0;entryDy=0;edgeStyle=orthogonalEdgeStyle;" edge="1" parent="1" source="rtPE3BVUv4YDp1QE3gb5-47" target="rtPE3BVUv4YDp1QE3gb5-42">
          <mxGeometry width="50" height="50" relative="1" as="geometry">
            <mxPoint x="545" y="420" as="sourcePoint" />
            <mxPoint x="450" y="480" as="targetPoint" />
          </mxGeometry>
        </mxCell>
        <mxCell id="rtPE3BVUv4YDp1QE3gb5-44" value="Display Homepage" style="rounded=1;whiteSpace=wrap;html=1;" vertex="1" parent="1">
          <mxGeometry x="450" y="485" width="100" height="30" as="geometry" />
        </mxCell>
        <mxCell id="rtPE3BVUv4YDp1QE3gb5-46" value="Yes" style="endArrow=classic;html=1;rounded=1;exitX=0;exitY=0.5;exitDx=0;exitDy=0;edgeStyle=orthogonalEdgeStyle;entryX=0.5;entryY=1;entryDx=0;entryDy=0;" edge="1" parent="1" source="rtPE3BVUv4YDp1QE3gb5-21" target="rtPE3BVUv4YDp1QE3gb5-107">
          <mxGeometry x="0.1847" width="50" height="50" relative="1" as="geometry">
            <mxPoint x="109.75" y="272.5" as="sourcePoint" />
            <mxPoint x="219.75" y="317.5" as="targetPoint" />
            <mxPoint as="offset" />
          </mxGeometry>
        </mxCell>
        <mxCell id="rtPE3BVUv4YDp1QE3gb5-48" value="" style="endArrow=classic;html=1;rounded=1;exitX=0.5;exitY=1;exitDx=0;exitDy=0;entryX=0.5;entryY=0;entryDx=0;entryDy=0;edgeStyle=orthogonalEdgeStyle;" edge="1" parent="1" source="rtPE3BVUv4YDp1QE3gb5-36" target="rtPE3BVUv4YDp1QE3gb5-47">
          <mxGeometry width="50" height="50" relative="1" as="geometry">
            <mxPoint x="500" y="380" as="sourcePoint" />
            <mxPoint x="345" y="435" as="targetPoint" />
          </mxGeometry>
        </mxCell>
        <mxCell id="rtPE3BVUv4YDp1QE3gb5-47" value="" style="ellipse;whiteSpace=wrap;html=1;rounded=1;rotation=90;fillColor=#000000;" vertex="1" parent="1">
          <mxGeometry x="370" y="400" width="50" height="20" as="geometry" />
        </mxCell>
        <mxCell id="rtPE3BVUv4YDp1QE3gb5-50" value="" style="endArrow=classic;html=1;rounded=1;exitX=0.5;exitY=1;exitDx=0;exitDy=0;entryX=0.5;entryY=1;entryDx=0;entryDy=0;edgeStyle=orthogonalEdgeStyle;" edge="1" parent="1" source="rtPE3BVUv4YDp1QE3gb5-47" target="rtPE3BVUv4YDp1QE3gb5-38">
          <mxGeometry width="50" height="50" relative="1" as="geometry">
            <mxPoint x="405" y="445" as="sourcePoint" />
            <mxPoint x="355" y="475" as="targetPoint" />
          </mxGeometry>
        </mxCell>
        <mxCell id="rtPE3BVUv4YDp1QE3gb5-51" value="Press Team Comp Guide" style="rhombus;whiteSpace=wrap;html=1;rounded=1;" vertex="1" parent="1">
          <mxGeometry x="295" y="570" width="80" height="80" as="geometry" />
        </mxCell>
        <mxCell id="rtPE3BVUv4YDp1QE3gb5-52" value="" style="ellipse;whiteSpace=wrap;html=1;rounded=1;rotation=90;fillColor=#000000;" vertex="1" parent="1">
          <mxGeometry x="370" y="540" width="50" height="20" as="geometry" />
        </mxCell>
        <mxCell id="rtPE3BVUv4YDp1QE3gb5-53" value="Press Character Information" style="rhombus;whiteSpace=wrap;html=1;rounded=1;" vertex="1" parent="1">
          <mxGeometry x="210" y="570" width="80" height="80" as="geometry" />
        </mxCell>
        <mxCell id="rtPE3BVUv4YDp1QE3gb5-54" value="Press Exit" style="rhombus;whiteSpace=wrap;html=1;rounded=1;" vertex="1" parent="1">
          <mxGeometry x="130" y="570" width="75" height="80" as="geometry" />
        </mxCell>
        <mxCell id="rtPE3BVUv4YDp1QE3gb5-55" value="Press Settings" style="rhombus;whiteSpace=wrap;html=1;rounded=1;" vertex="1" parent="1">
          <mxGeometry x="-220" y="1140" width="75" height="80" as="geometry" />
        </mxCell>
        <mxCell id="rtPE3BVUv4YDp1QE3gb5-56" value="" style="endArrow=classic;html=1;rounded=1;exitX=0.5;exitY=1;exitDx=0;exitDy=0;entryX=0.5;entryY=0;entryDx=0;entryDy=0;edgeStyle=orthogonalEdgeStyle;" edge="1" parent="1" source="rtPE3BVUv4YDp1QE3gb5-44" target="rtPE3BVUv4YDp1QE3gb5-52">
          <mxGeometry width="50" height="50" relative="1" as="geometry">
            <mxPoint x="535" y="560" as="sourcePoint" />
            <mxPoint x="440" y="590" as="targetPoint" />
          </mxGeometry>
        </mxCell>
        <mxCell id="rtPE3BVUv4YDp1QE3gb5-57" value="" style="endArrow=classic;html=1;rounded=1;exitX=0.5;exitY=1;exitDx=0;exitDy=0;entryX=0.5;entryY=0;entryDx=0;entryDy=0;edgeStyle=orthogonalEdgeStyle;" edge="1" parent="1" source="rtPE3BVUv4YDp1QE3gb5-52" target="rtPE3BVUv4YDp1QE3gb5-51">
          <mxGeometry width="50" height="50" relative="1" as="geometry">
            <mxPoint x="395" y="535" as="sourcePoint" />
            <mxPoint x="300" y="565" as="targetPoint" />
          </mxGeometry>
        </mxCell>
        <mxCell id="rtPE3BVUv4YDp1QE3gb5-58" value="" style="endArrow=classic;html=1;rounded=1;exitX=0.5;exitY=1;exitDx=0;exitDy=0;entryX=0.5;entryY=0;entryDx=0;entryDy=0;edgeStyle=orthogonalEdgeStyle;" edge="1" parent="1" source="rtPE3BVUv4YDp1QE3gb5-52" target="rtPE3BVUv4YDp1QE3gb5-53">
          <mxGeometry width="50" height="50" relative="1" as="geometry">
            <mxPoint x="395" y="560" as="sourcePoint" />
            <mxPoint x="345" y="580" as="targetPoint" />
          </mxGeometry>
        </mxCell>
        <mxCell id="rtPE3BVUv4YDp1QE3gb5-59" value="" style="endArrow=classic;html=1;rounded=1;exitX=0.5;exitY=1;exitDx=0;exitDy=0;entryX=0.5;entryY=0;entryDx=0;entryDy=0;edgeStyle=orthogonalEdgeStyle;" edge="1" parent="1" source="rtPE3BVUv4YDp1QE3gb5-52" target="rtPE3BVUv4YDp1QE3gb5-54">
          <mxGeometry width="50" height="50" relative="1" as="geometry">
            <mxPoint x="395" y="560" as="sourcePoint" />
            <mxPoint x="260" y="580" as="targetPoint" />
          </mxGeometry>
        </mxCell>
        <mxCell id="rtPE3BVUv4YDp1QE3gb5-60" value="Yes" style="endArrow=classic;html=1;rounded=1;exitX=0;exitY=0.5;exitDx=0;exitDy=0;edgeStyle=orthogonalEdgeStyle;entryX=0.5;entryY=1;entryDx=0;entryDy=0;" edge="1" parent="1" source="rtPE3BVUv4YDp1QE3gb5-54" target="rtPE3BVUv4YDp1QE3gb5-281">
          <mxGeometry x="-0.8278" width="50" height="50" relative="1" as="geometry">
            <mxPoint x="180" y="660" as="sourcePoint" />
            <mxPoint x="320" y="685" as="targetPoint" />
            <Array as="points">
              <mxPoint x="130" y="-50" />
            </Array>
            <mxPoint as="offset" />
          </mxGeometry>
        </mxCell>
        <mxCell id="rtPE3BVUv4YDp1QE3gb5-61" value="" style="endArrow=classic;html=1;rounded=1;exitX=0.5;exitY=1;exitDx=0;exitDy=0;entryX=0.5;entryY=0;entryDx=0;entryDy=0;edgeStyle=orthogonalEdgeStyle;" edge="1" parent="1" source="rtPE3BVUv4YDp1QE3gb5-52" target="rtPE3BVUv4YDp1QE3gb5-161">
          <mxGeometry width="50" height="50" relative="1" as="geometry">
            <mxPoint x="395" y="560" as="sourcePoint" />
            <mxPoint x="178" y="580" as="targetPoint" />
          </mxGeometry>
        </mxCell>
        <mxCell id="rtPE3BVUv4YDp1QE3gb5-62" value="Display Team Guide Page" style="rounded=1;whiteSpace=wrap;html=1;" vertex="1" parent="1">
          <mxGeometry x="460" y="650" width="100" height="30" as="geometry" />
        </mxCell>
        <mxCell id="rtPE3BVUv4YDp1QE3gb5-64" value="Press Enemies&amp;nbsp;&lt;div&gt;Only&lt;/div&gt;" style="rhombus;whiteSpace=wrap;html=1;rounded=1;" vertex="1" parent="1">
          <mxGeometry x="320" y="740" width="80" height="80" as="geometry" />
        </mxCell>
        <mxCell id="rtPE3BVUv4YDp1QE3gb5-65" value="" style="ellipse;whiteSpace=wrap;html=1;rounded=1;rotation=90;fillColor=#000000;" vertex="1" parent="1">
          <mxGeometry x="360" y="700" width="50" height="20" as="geometry" />
        </mxCell>
        <mxCell id="rtPE3BVUv4YDp1QE3gb5-66" value="Press&amp;nbsp;&lt;div&gt;Spiral&amp;nbsp;&lt;/div&gt;&lt;div&gt;Abyss&lt;/div&gt;" style="rhombus;whiteSpace=wrap;html=1;rounded=1;" vertex="1" parent="1">
          <mxGeometry x="225" y="740" width="80" height="80" as="geometry" />
        </mxCell>
        <mxCell id="rtPE3BVUv4YDp1QE3gb5-67" value="" style="endArrow=classic;html=1;rounded=1;exitX=0.5;exitY=1;exitDx=0;exitDy=0;entryX=0.5;entryY=0;entryDx=0;entryDy=0;edgeStyle=orthogonalEdgeStyle;" edge="1" parent="1" source="rtPE3BVUv4YDp1QE3gb5-62" target="rtPE3BVUv4YDp1QE3gb5-65">
          <mxGeometry width="50" height="50" relative="1" as="geometry">
            <mxPoint x="505" y="710" as="sourcePoint" />
            <mxPoint x="410" y="740" as="targetPoint" />
          </mxGeometry>
        </mxCell>
        <mxCell id="rtPE3BVUv4YDp1QE3gb5-68" value="" style="endArrow=classic;html=1;rounded=1;exitX=0.5;exitY=1;exitDx=0;exitDy=0;edgeStyle=orthogonalEdgeStyle;" edge="1" parent="1" source="rtPE3BVUv4YDp1QE3gb5-65" target="rtPE3BVUv4YDp1QE3gb5-64">
          <mxGeometry width="50" height="50" relative="1" as="geometry">
            <mxPoint x="355" y="710" as="sourcePoint" />
            <mxPoint x="240" y="740" as="targetPoint" />
          </mxGeometry>
        </mxCell>
        <mxCell id="rtPE3BVUv4YDp1QE3gb5-69" value="" style="endArrow=classic;html=1;rounded=1;exitX=0.5;exitY=1;exitDx=0;exitDy=0;edgeStyle=orthogonalEdgeStyle;entryX=0.5;entryY=0;entryDx=0;entryDy=0;" edge="1" parent="1" source="rtPE3BVUv4YDp1QE3gb5-65" target="rtPE3BVUv4YDp1QE3gb5-66">
          <mxGeometry width="50" height="50" relative="1" as="geometry">
            <mxPoint x="385" y="720" as="sourcePoint" />
            <mxPoint x="360" y="750" as="targetPoint" />
          </mxGeometry>
        </mxCell>
        <mxCell id="rtPE3BVUv4YDp1QE3gb5-70" value="Display Team Guide Page 1" style="rounded=1;whiteSpace=wrap;html=1;" vertex="1" parent="1">
          <mxGeometry x="450" y="800" width="100" height="30" as="geometry" />
        </mxCell>
        <mxCell id="rtPE3BVUv4YDp1QE3gb5-73" value="Select enemies" style="rounded=1;whiteSpace=wrap;html=1;" vertex="1" parent="1">
          <mxGeometry x="310" y="900" width="70" height="30" as="geometry" />
        </mxCell>
        <mxCell id="rtPE3BVUv4YDp1QE3gb5-74" value="Select Elements" style="rounded=1;whiteSpace=wrap;html=1;" vertex="1" parent="1">
          <mxGeometry x="227.5" y="900" width="65" height="30" as="geometry" />
        </mxCell>
        <mxCell id="rtPE3BVUv4YDp1QE3gb5-75" value="Select Weapons" style="rounded=1;whiteSpace=wrap;html=1;" vertex="1" parent="1">
          <mxGeometry x="145" y="900" width="65" height="30" as="geometry" />
        </mxCell>
        <mxCell id="rtPE3BVUv4YDp1QE3gb5-76" value="" style="ellipse;whiteSpace=wrap;html=1;rounded=1;rotation=90;fillColor=#000000;" vertex="1" parent="1">
          <mxGeometry x="375" y="870" width="50" height="20" as="geometry" />
        </mxCell>
        <mxCell id="rtPE3BVUv4YDp1QE3gb5-78" value="" style="endArrow=classic;html=1;rounded=1;edgeStyle=orthogonalEdgeStyle;exitX=0.5;exitY=1;exitDx=0;exitDy=0;entryX=0.5;entryY=0;entryDx=0;entryDy=0;" edge="1" parent="1" source="rtPE3BVUv4YDp1QE3gb5-70" target="rtPE3BVUv4YDp1QE3gb5-76">
          <mxGeometry width="50" height="50" relative="1" as="geometry">
            <mxPoint x="560" y="890" as="sourcePoint" />
            <mxPoint x="445" y="920" as="targetPoint" />
            <Array as="points">
              <mxPoint x="500" y="880" />
            </Array>
          </mxGeometry>
        </mxCell>
        <mxCell id="rtPE3BVUv4YDp1QE3gb5-79" value="" style="endArrow=classic;html=1;rounded=1;edgeStyle=orthogonalEdgeStyle;exitX=0.5;exitY=1;exitDx=0;exitDy=0;entryX=0.5;entryY=0;entryDx=0;entryDy=0;" edge="1" parent="1" source="rtPE3BVUv4YDp1QE3gb5-76" target="rtPE3BVUv4YDp1QE3gb5-73">
          <mxGeometry width="50" height="50" relative="1" as="geometry">
            <mxPoint x="355" y="860" as="sourcePoint" />
            <mxPoint x="265" y="890" as="targetPoint" />
            <Array as="points">
              <mxPoint x="345" y="880" />
            </Array>
          </mxGeometry>
        </mxCell>
        <mxCell id="rtPE3BVUv4YDp1QE3gb5-80" value="" style="endArrow=classic;html=1;rounded=1;edgeStyle=orthogonalEdgeStyle;entryX=0.5;entryY=0;entryDx=0;entryDy=0;" edge="1" parent="1" target="rtPE3BVUv4YDp1QE3gb5-74">
          <mxGeometry width="50" height="50" relative="1" as="geometry">
            <mxPoint x="390" y="880" as="sourcePoint" />
            <mxPoint x="355" y="930" as="targetPoint" />
            <Array as="points">
              <mxPoint x="260" y="880" />
            </Array>
          </mxGeometry>
        </mxCell>
        <mxCell id="rtPE3BVUv4YDp1QE3gb5-81" value="" style="endArrow=classic;html=1;rounded=1;edgeStyle=orthogonalEdgeStyle;exitX=0.5;exitY=1;exitDx=0;exitDy=0;" edge="1" parent="1" source="rtPE3BVUv4YDp1QE3gb5-76" target="rtPE3BVUv4YDp1QE3gb5-75">
          <mxGeometry width="50" height="50" relative="1" as="geometry">
            <mxPoint x="305" y="870" as="sourcePoint" />
            <mxPoint x="175" y="910" as="targetPoint" />
            <Array as="points">
              <mxPoint x="175" y="880" />
            </Array>
          </mxGeometry>
        </mxCell>
        <mxCell id="rtPE3BVUv4YDp1QE3gb5-82" value="" style="endArrow=classic;html=1;rounded=1;edgeStyle=orthogonalEdgeStyle;exitX=0.5;exitY=1;exitDx=0;exitDy=0;entryX=0.5;entryY=1;entryDx=0;entryDy=0;" edge="1" parent="1" source="rtPE3BVUv4YDp1QE3gb5-76" target="rtPE3BVUv4YDp1QE3gb5-66">
          <mxGeometry width="50" height="50" relative="1" as="geometry">
            <mxPoint x="335" y="830" as="sourcePoint" />
            <mxPoint x="245" y="860" as="targetPoint" />
            <Array as="points">
              <mxPoint x="265" y="880" />
            </Array>
          </mxGeometry>
        </mxCell>
        <mxCell id="rtPE3BVUv4YDp1QE3gb5-83" value="Display Team Guide Page 2" style="rounded=1;whiteSpace=wrap;html=1;" vertex="1" parent="1">
          <mxGeometry x="460" y="935" width="100" height="30" as="geometry" />
        </mxCell>
        <mxCell id="rtPE3BVUv4YDp1QE3gb5-86" value="D" style="ellipse;whiteSpace=wrap;html=1;rounded=1;rotation=90;fillColor=#000000;" vertex="1" parent="1">
          <mxGeometry x="380" y="940" width="50" height="20" as="geometry" />
        </mxCell>
        <mxCell id="rtPE3BVUv4YDp1QE3gb5-88" value="" style="endArrow=classic;html=1;rounded=1;exitX=0.5;exitY=1;exitDx=0;exitDy=0;edgeStyle=orthogonalEdgeStyle;entryX=1;entryY=1;entryDx=0;entryDy=0;" edge="1" parent="1" source="rtPE3BVUv4YDp1QE3gb5-75" target="rtPE3BVUv4YDp1QE3gb5-86">
          <mxGeometry x="0.2242" width="50" height="50" relative="1" as="geometry">
            <mxPoint x="170" y="950" as="sourcePoint" />
            <mxPoint x="270" y="965" as="targetPoint" />
            <Array as="points">
              <mxPoint x="178" y="950" />
              <mxPoint x="398" y="950" />
            </Array>
            <mxPoint as="offset" />
          </mxGeometry>
        </mxCell>
        <mxCell id="rtPE3BVUv4YDp1QE3gb5-90" value="" style="endArrow=classic;html=1;rounded=1;exitX=0.5;exitY=1;exitDx=0;exitDy=0;edgeStyle=orthogonalEdgeStyle;entryX=0.5;entryY=1;entryDx=0;entryDy=0;" edge="1" parent="1" target="rtPE3BVUv4YDp1QE3gb5-86">
          <mxGeometry x="0.2242" width="50" height="50" relative="1" as="geometry">
            <mxPoint x="258" y="930" as="sourcePoint" />
            <mxPoint x="478" y="968" as="targetPoint" />
            <Array as="points">
              <mxPoint x="258" y="950" />
            </Array>
            <mxPoint as="offset" />
          </mxGeometry>
        </mxCell>
        <mxCell id="rtPE3BVUv4YDp1QE3gb5-96" value="Select ban characters" style="rounded=1;whiteSpace=wrap;html=1;" vertex="1" parent="1">
          <mxGeometry x="330" y="990" width="70" height="30" as="geometry" />
        </mxCell>
        <mxCell id="rtPE3BVUv4YDp1QE3gb5-97" value="" style="endArrow=classic;html=1;rounded=1;edgeStyle=orthogonalEdgeStyle;" edge="1" parent="1" source="rtPE3BVUv4YDp1QE3gb5-83" target="rtPE3BVUv4YDp1QE3gb5-96">
          <mxGeometry width="50" height="50" relative="1" as="geometry">
            <mxPoint x="500" y="980" as="sourcePoint" />
            <mxPoint x="410" y="1010" as="targetPoint" />
            <Array as="points">
              <mxPoint x="500" y="1010" />
            </Array>
          </mxGeometry>
        </mxCell>
        <mxCell id="rtPE3BVUv4YDp1QE3gb5-98" value="" style="endArrow=classic;html=1;rounded=1;exitX=0.5;exitY=0;exitDx=0;exitDy=0;entryX=0;entryY=0.5;entryDx=0;entryDy=0;" edge="1" parent="1" source="rtPE3BVUv4YDp1QE3gb5-86" target="rtPE3BVUv4YDp1QE3gb5-83">
          <mxGeometry x="0.2242" width="50" height="50" relative="1" as="geometry">
            <mxPoint x="423" y="940" as="sourcePoint" />
            <mxPoint x="460" y="980" as="targetPoint" />
            <mxPoint as="offset" />
          </mxGeometry>
        </mxCell>
        <mxCell id="rtPE3BVUv4YDp1QE3gb5-99" value="Display Summary" style="rounded=1;whiteSpace=wrap;html=1;" vertex="1" parent="1">
          <mxGeometry x="480" y="1020" width="100" height="30" as="geometry" />
        </mxCell>
        <mxCell id="rtPE3BVUv4YDp1QE3gb5-100" value="" style="endArrow=classic;html=1;rounded=1;exitX=0.5;exitY=1;exitDx=0;exitDy=0;entryX=0;entryY=0.5;entryDx=0;entryDy=0;edgeStyle=orthogonalEdgeStyle;" edge="1" parent="1" source="rtPE3BVUv4YDp1QE3gb5-96" target="rtPE3BVUv4YDp1QE3gb5-99">
          <mxGeometry width="50" height="50" relative="1" as="geometry">
            <mxPoint x="375" y="1030" as="sourcePoint" />
            <mxPoint x="275" y="1075" as="targetPoint" />
          </mxGeometry>
        </mxCell>
        <mxCell id="rtPE3BVUv4YDp1QE3gb5-101" value="Press&amp;nbsp;&lt;div&gt;Restart&lt;/div&gt;" style="rhombus;whiteSpace=wrap;html=1;rounded=1;" vertex="1" parent="1">
          <mxGeometry x="130" y="740" width="80" height="80" as="geometry" />
        </mxCell>
        <mxCell id="rtPE3BVUv4YDp1QE3gb5-102" value="" style="endArrow=classic;html=1;rounded=1;entryX=0.5;entryY=0;entryDx=0;entryDy=0;edgeStyle=orthogonalEdgeStyle;" edge="1" parent="1" target="rtPE3BVUv4YDp1QE3gb5-101">
          <mxGeometry width="50" height="50" relative="1" as="geometry">
            <mxPoint x="380" y="710" as="sourcePoint" />
            <mxPoint x="420" y="820" as="targetPoint" />
          </mxGeometry>
        </mxCell>
        <mxCell id="rtPE3BVUv4YDp1QE3gb5-103" value="Press Exit" style="rhombus;whiteSpace=wrap;html=1;rounded=1;" vertex="1" parent="1">
          <mxGeometry x="40" y="740" width="80" height="80" as="geometry" />
        </mxCell>
        <mxCell id="rtPE3BVUv4YDp1QE3gb5-104" value="" style="endArrow=classic;html=1;rounded=1;entryX=0.5;entryY=0;entryDx=0;entryDy=0;edgeStyle=orthogonalEdgeStyle;exitX=0.5;exitY=1;exitDx=0;exitDy=0;" edge="1" parent="1" source="rtPE3BVUv4YDp1QE3gb5-65" target="rtPE3BVUv4YDp1QE3gb5-103">
          <mxGeometry width="50" height="50" relative="1" as="geometry">
            <mxPoint x="290" y="710" as="sourcePoint" />
            <mxPoint x="80" y="740" as="targetPoint" />
          </mxGeometry>
        </mxCell>
        <mxCell id="rtPE3BVUv4YDp1QE3gb5-107" value="" style="ellipse;whiteSpace=wrap;html=1;rounded=1;rotation=90;fillColor=#000000;" vertex="1" parent="1">
          <mxGeometry x="360" y="490" width="50" height="20" as="geometry" />
        </mxCell>
        <mxCell id="rtPE3BVUv4YDp1QE3gb5-109" value="" style="endArrow=classic;html=1;rounded=1;exitX=0.5;exitY=0;exitDx=0;exitDy=0;entryX=0;entryY=0.5;entryDx=0;entryDy=0;" edge="1" parent="1" source="rtPE3BVUv4YDp1QE3gb5-107" target="rtPE3BVUv4YDp1QE3gb5-44">
          <mxGeometry width="50" height="50" relative="1" as="geometry">
            <mxPoint x="400" y="510" as="sourcePoint" />
            <mxPoint x="450" y="460" as="targetPoint" />
          </mxGeometry>
        </mxCell>
        <mxCell id="rtPE3BVUv4YDp1QE3gb5-111" value="" style="ellipse;whiteSpace=wrap;html=1;rounded=1;rotation=90;fillColor=#000000;" vertex="1" parent="1">
          <mxGeometry x="390" y="655" width="50" height="20" as="geometry" />
        </mxCell>
        <mxCell id="rtPE3BVUv4YDp1QE3gb5-114" value="Yes" style="endArrow=classic;html=1;rounded=1;exitX=0.5;exitY=1;exitDx=0;exitDy=0;entryX=0.5;entryY=1;entryDx=0;entryDy=0;edgeStyle=orthogonalEdgeStyle;" edge="1" parent="1" source="rtPE3BVUv4YDp1QE3gb5-101" target="rtPE3BVUv4YDp1QE3gb5-111">
          <mxGeometry x="-0.6585" width="50" height="50" relative="1" as="geometry">
            <mxPoint x="370" y="780" as="sourcePoint" />
            <mxPoint x="420" y="730" as="targetPoint" />
            <Array as="points">
              <mxPoint x="170" y="830" />
              <mxPoint x="210" y="830" />
              <mxPoint x="210" y="665" />
            </Array>
            <mxPoint as="offset" />
          </mxGeometry>
        </mxCell>
        <mxCell id="rtPE3BVUv4YDp1QE3gb5-63" value="Yes" style="endArrow=classic;html=1;rounded=1;exitX=0.5;exitY=1;exitDx=0;exitDy=0;edgeStyle=orthogonalEdgeStyle;entryX=0.5;entryY=1;entryDx=0;entryDy=0;" edge="1" parent="1" source="rtPE3BVUv4YDp1QE3gb5-51" target="rtPE3BVUv4YDp1QE3gb5-111">
          <mxGeometry x="0.2273" width="50" height="50" relative="1" as="geometry">
            <mxPoint x="310" y="670" as="sourcePoint" />
            <mxPoint x="450" y="695" as="targetPoint" />
            <Array as="points">
              <mxPoint x="335" y="665" />
            </Array>
            <mxPoint as="offset" />
          </mxGeometry>
        </mxCell>
        <mxCell id="rtPE3BVUv4YDp1QE3gb5-115" value="" style="endArrow=classic;html=1;rounded=1;exitX=0.5;exitY=0;exitDx=0;exitDy=0;entryX=0;entryY=0.5;entryDx=0;entryDy=0;" edge="1" parent="1" source="rtPE3BVUv4YDp1QE3gb5-111" target="rtPE3BVUv4YDp1QE3gb5-62">
          <mxGeometry width="50" height="50" relative="1" as="geometry">
            <mxPoint x="430" y="670" as="sourcePoint" />
            <mxPoint x="480" y="620" as="targetPoint" />
          </mxGeometry>
        </mxCell>
        <mxCell id="rtPE3BVUv4YDp1QE3gb5-117" value="Press Generate" style="rhombus;whiteSpace=wrap;html=1;rounded=1;" vertex="1" parent="1">
          <mxGeometry x="320" y="1050" width="80" height="80" as="geometry" />
        </mxCell>
        <mxCell id="rtPE3BVUv4YDp1QE3gb5-118" value="" style="endArrow=classic;html=1;rounded=1;entryX=1;entryY=0.5;entryDx=0;entryDy=0;exitX=0.5;exitY=1;exitDx=0;exitDy=0;edgeStyle=orthogonalEdgeStyle;" edge="1" parent="1" source="rtPE3BVUv4YDp1QE3gb5-99" target="rtPE3BVUv4YDp1QE3gb5-117">
          <mxGeometry width="50" height="50" relative="1" as="geometry">
            <mxPoint x="370" y="1140" as="sourcePoint" />
            <mxPoint x="420" y="1090" as="targetPoint" />
          </mxGeometry>
        </mxCell>
        <mxCell id="rtPE3BVUv4YDp1QE3gb5-119" value="Activate generator" style="rounded=1;whiteSpace=wrap;html=1;" vertex="1" parent="1">
          <mxGeometry x="450" y="1130" width="90" height="30" as="geometry" />
        </mxCell>
        <mxCell id="rtPE3BVUv4YDp1QE3gb5-120" value="Display team result" style="rounded=1;whiteSpace=wrap;html=1;" vertex="1" parent="1">
          <mxGeometry x="480" y="1335" width="90" height="30" as="geometry" />
        </mxCell>
        <mxCell id="rtPE3BVUv4YDp1QE3gb5-121" value="Display Team Guide Page 3" style="rounded=1;whiteSpace=wrap;html=1;" vertex="1" parent="1">
          <mxGeometry x="620" y="1185" width="100" height="30" as="geometry" />
        </mxCell>
        <mxCell id="rtPE3BVUv4YDp1QE3gb5-122" value="Yes" style="endArrow=classic;html=1;rounded=1;exitX=1;exitY=0.5;exitDx=0;exitDy=0;entryX=0.5;entryY=0;entryDx=0;entryDy=0;edgeStyle=orthogonalEdgeStyle;" edge="1" parent="1" source="rtPE3BVUv4YDp1QE3gb5-66" target="rtPE3BVUv4YDp1QE3gb5-121">
          <mxGeometry x="-0.8533" width="50" height="50" relative="1" as="geometry">
            <mxPoint x="370" y="840" as="sourcePoint" />
            <mxPoint x="420" y="790" as="targetPoint" />
            <Array as="points">
              <mxPoint x="305" y="853" />
              <mxPoint x="670" y="853" />
            </Array>
            <mxPoint as="offset" />
          </mxGeometry>
        </mxCell>
        <mxCell id="rtPE3BVUv4YDp1QE3gb5-123" value="Yes" style="endArrow=classic;html=1;rounded=1;exitX=0.5;exitY=1;exitDx=0;exitDy=0;entryX=0;entryY=0.75;entryDx=0;entryDy=0;" edge="1" parent="1" source="rtPE3BVUv4YDp1QE3gb5-64" target="rtPE3BVUv4YDp1QE3gb5-70">
          <mxGeometry width="50" height="50" relative="1" as="geometry">
            <mxPoint x="390" y="930" as="sourcePoint" />
            <mxPoint x="440" y="880" as="targetPoint" />
          </mxGeometry>
        </mxCell>
        <mxCell id="rtPE3BVUv4YDp1QE3gb5-128" value="" style="ellipse;whiteSpace=wrap;html=1;rounded=1;rotation=90;fillColor=#000000;" vertex="1" parent="1">
          <mxGeometry x="370" y="1190" width="50" height="20" as="geometry" />
        </mxCell>
        <mxCell id="rtPE3BVUv4YDp1QE3gb5-130" value="" style="endArrow=classic;html=1;rounded=1;edgeStyle=orthogonalEdgeStyle;exitX=0.5;exitY=1;exitDx=0;exitDy=0;entryX=0.5;entryY=1;entryDx=0;entryDy=0;" edge="1" parent="1" source="rtPE3BVUv4YDp1QE3gb5-128" target="rtPE3BVUv4YDp1QE3gb5-64">
          <mxGeometry width="50" height="50" relative="1" as="geometry">
            <mxPoint x="335" y="1171.15" as="sourcePoint" />
            <mxPoint x="265" y="1161.15" as="targetPoint" />
            <Array as="points">
              <mxPoint x="385" y="1210" />
              <mxPoint x="120" y="1210" />
              <mxPoint x="120" y="860" />
              <mxPoint x="360" y="860" />
            </Array>
          </mxGeometry>
        </mxCell>
        <mxCell id="rtPE3BVUv4YDp1QE3gb5-131" value="" style="endArrow=classic;html=1;rounded=1;edgeStyle=orthogonalEdgeStyle;entryX=0.5;entryY=0;entryDx=0;entryDy=0;" edge="1" parent="1" target="rtPE3BVUv4YDp1QE3gb5-135">
          <mxGeometry width="50" height="50" relative="1" as="geometry">
            <mxPoint x="380" y="1210" as="sourcePoint" />
            <mxPoint x="260" y="1251.15" as="targetPoint" />
            <Array as="points">
              <mxPoint x="260" y="1210" />
            </Array>
          </mxGeometry>
        </mxCell>
        <mxCell id="rtPE3BVUv4YDp1QE3gb5-132" value="" style="endArrow=classic;html=1;rounded=1;edgeStyle=orthogonalEdgeStyle;exitX=0.5;exitY=1;exitDx=0;exitDy=0;" edge="1" parent="1" source="rtPE3BVUv4YDp1QE3gb5-128">
          <mxGeometry width="50" height="50" relative="1" as="geometry">
            <mxPoint x="355" y="1201.15" as="sourcePoint" />
            <mxPoint x="345" y="1240" as="targetPoint" />
            <Array as="points">
              <mxPoint x="385" y="1210" />
              <mxPoint x="345" y="1210" />
            </Array>
          </mxGeometry>
        </mxCell>
        <mxCell id="rtPE3BVUv4YDp1QE3gb5-133" value="" style="endArrow=classic;html=1;rounded=1;edgeStyle=orthogonalEdgeStyle;exitX=0.5;exitY=1;exitDx=0;exitDy=0;" edge="1" parent="1" source="rtPE3BVUv4YDp1QE3gb5-128" target="rtPE3BVUv4YDp1QE3gb5-134">
          <mxGeometry width="50" height="50" relative="1" as="geometry">
            <mxPoint x="305" y="1211.15" as="sourcePoint" />
            <mxPoint x="175" y="1251.15" as="targetPoint" />
            <Array as="points">
              <mxPoint x="385" y="1210" />
              <mxPoint x="175" y="1210" />
            </Array>
          </mxGeometry>
        </mxCell>
        <mxCell id="rtPE3BVUv4YDp1QE3gb5-134" value="Select Weapons" style="rounded=1;whiteSpace=wrap;html=1;" vertex="1" parent="1">
          <mxGeometry x="145" y="1241.15" width="65" height="30" as="geometry" />
        </mxCell>
        <mxCell id="rtPE3BVUv4YDp1QE3gb5-135" value="Select Elements" style="rounded=1;whiteSpace=wrap;html=1;" vertex="1" parent="1">
          <mxGeometry x="227.5" y="1241.15" width="65" height="30" as="geometry" />
        </mxCell>
        <mxCell id="rtPE3BVUv4YDp1QE3gb5-136" value="Select floor and chamber" style="rounded=1;whiteSpace=wrap;html=1;" vertex="1" parent="1">
          <mxGeometry x="310" y="1241.15" width="80" height="30" as="geometry" />
        </mxCell>
        <mxCell id="rtPE3BVUv4YDp1QE3gb5-137" value="" style="endArrow=classic;html=1;rounded=1;exitX=0.5;exitY=1;exitDx=0;exitDy=0;edgeStyle=orthogonalEdgeStyle;entryX=1;entryY=1;entryDx=0;entryDy=0;" edge="1" parent="1" source="rtPE3BVUv4YDp1QE3gb5-134" target="rtPE3BVUv4YDp1QE3gb5-140">
          <mxGeometry x="0.2242" width="50" height="50" relative="1" as="geometry">
            <mxPoint x="170" y="1291.15" as="sourcePoint" />
            <mxPoint x="270" y="1306.15" as="targetPoint" />
            <Array as="points">
              <mxPoint x="178" y="1291" />
              <mxPoint x="398" y="1291" />
            </Array>
            <mxPoint as="offset" />
          </mxGeometry>
        </mxCell>
        <mxCell id="rtPE3BVUv4YDp1QE3gb5-138" value="" style="endArrow=classic;html=1;rounded=1;exitX=0.5;exitY=1;exitDx=0;exitDy=0;edgeStyle=orthogonalEdgeStyle;entryX=0.5;entryY=1;entryDx=0;entryDy=0;" edge="1" parent="1" target="rtPE3BVUv4YDp1QE3gb5-140">
          <mxGeometry x="0.2242" width="50" height="50" relative="1" as="geometry">
            <mxPoint x="258" y="1271.15" as="sourcePoint" />
            <mxPoint x="478" y="1309.15" as="targetPoint" />
            <Array as="points">
              <mxPoint x="258" y="1291.15" />
            </Array>
            <mxPoint as="offset" />
          </mxGeometry>
        </mxCell>
        <mxCell id="rtPE3BVUv4YDp1QE3gb5-140" value="" style="ellipse;whiteSpace=wrap;html=1;rounded=1;rotation=90;fillColor=#000000;" vertex="1" parent="1">
          <mxGeometry x="380" y="1281.15" width="50" height="20" as="geometry" />
        </mxCell>
        <mxCell id="rtPE3BVUv4YDp1QE3gb5-142" value="" style="endArrow=classic;html=1;rounded=1;entryX=0.5;entryY=0;entryDx=0;entryDy=0;exitX=0;exitY=0.5;exitDx=0;exitDy=0;" edge="1" parent="1" source="rtPE3BVUv4YDp1QE3gb5-121" target="rtPE3BVUv4YDp1QE3gb5-128">
          <mxGeometry width="50" height="50" relative="1" as="geometry">
            <mxPoint x="500" y="1230" as="sourcePoint" />
            <mxPoint x="550" y="1180" as="targetPoint" />
          </mxGeometry>
        </mxCell>
        <mxCell id="rtPE3BVUv4YDp1QE3gb5-143" value="Display Team Guide Page 4" style="rounded=1;whiteSpace=wrap;html=1;" vertex="1" parent="1">
          <mxGeometry x="470" y="1276.15" width="100" height="30" as="geometry" />
        </mxCell>
        <mxCell id="rtPE3BVUv4YDp1QE3gb5-144" value="Select ban characters" style="rounded=1;whiteSpace=wrap;html=1;" vertex="1" parent="1">
          <mxGeometry x="65" y="1241.15" width="65" height="30" as="geometry" />
        </mxCell>
        <mxCell id="rtPE3BVUv4YDp1QE3gb5-147" value="" style="endArrow=classic;html=1;rounded=1;exitX=0.5;exitY=1;exitDx=0;exitDy=0;entryX=0.5;entryY=0;entryDx=0;entryDy=0;edgeStyle=orthogonalEdgeStyle;" edge="1" parent="1" source="rtPE3BVUv4YDp1QE3gb5-128" target="rtPE3BVUv4YDp1QE3gb5-144">
          <mxGeometry width="50" height="50" relative="1" as="geometry">
            <mxPoint x="260" y="1190" as="sourcePoint" />
            <mxPoint x="310" y="1140" as="targetPoint" />
            <Array as="points">
              <mxPoint x="385" y="1210" />
              <mxPoint x="98" y="1210" />
            </Array>
          </mxGeometry>
        </mxCell>
        <mxCell id="rtPE3BVUv4YDp1QE3gb5-148" value="" style="endArrow=classic;html=1;rounded=1;exitX=0.5;exitY=1;exitDx=0;exitDy=0;entryX=0.5;entryY=1;entryDx=0;entryDy=0;edgeStyle=orthogonalEdgeStyle;" edge="1" parent="1" source="rtPE3BVUv4YDp1QE3gb5-144" target="rtPE3BVUv4YDp1QE3gb5-140">
          <mxGeometry width="50" height="50" relative="1" as="geometry">
            <mxPoint x="390" y="1340" as="sourcePoint" />
            <mxPoint x="440" y="1290" as="targetPoint" />
          </mxGeometry>
        </mxCell>
        <mxCell id="rtPE3BVUv4YDp1QE3gb5-149" value="" style="endArrow=classic;html=1;rounded=1;exitX=0.5;exitY=1;exitDx=0;exitDy=0;entryX=0.5;entryY=1;entryDx=0;entryDy=0;edgeStyle=orthogonalEdgeStyle;" edge="1" parent="1" source="rtPE3BVUv4YDp1QE3gb5-73" target="rtPE3BVUv4YDp1QE3gb5-86">
          <mxGeometry width="50" height="50" relative="1" as="geometry">
            <mxPoint x="340" y="960" as="sourcePoint" />
            <mxPoint x="390" y="910" as="targetPoint" />
          </mxGeometry>
        </mxCell>
        <mxCell id="rtPE3BVUv4YDp1QE3gb5-150" value="" style="endArrow=classic;html=1;rounded=1;exitX=0.5;exitY=1;exitDx=0;exitDy=0;entryX=0.5;entryY=1;entryDx=0;entryDy=0;edgeStyle=orthogonalEdgeStyle;" edge="1" parent="1" source="rtPE3BVUv4YDp1QE3gb5-136" target="rtPE3BVUv4YDp1QE3gb5-140">
          <mxGeometry width="50" height="50" relative="1" as="geometry">
            <mxPoint x="390" y="1250" as="sourcePoint" />
            <mxPoint x="440" y="1200" as="targetPoint" />
          </mxGeometry>
        </mxCell>
        <mxCell id="rtPE3BVUv4YDp1QE3gb5-151" value="" style="endArrow=classic;html=1;rounded=1;exitX=0.5;exitY=0;exitDx=0;exitDy=0;entryX=0;entryY=0.5;entryDx=0;entryDy=0;" edge="1" parent="1" source="rtPE3BVUv4YDp1QE3gb5-140" target="rtPE3BVUv4YDp1QE3gb5-143">
          <mxGeometry width="50" height="50" relative="1" as="geometry">
            <mxPoint x="390" y="1250" as="sourcePoint" />
            <mxPoint x="440" y="1200" as="targetPoint" />
          </mxGeometry>
        </mxCell>
        <mxCell id="rtPE3BVUv4YDp1QE3gb5-152" value="" style="endArrow=classic;html=1;rounded=1;exitX=1;exitY=0.5;exitDx=0;exitDy=0;edgeStyle=orthogonalEdgeStyle;entryX=1;entryY=0.5;entryDx=0;entryDy=0;" edge="1" parent="1" source="rtPE3BVUv4YDp1QE3gb5-143" target="rtPE3BVUv4YDp1QE3gb5-99">
          <mxGeometry width="50" height="50" relative="1" as="geometry">
            <mxPoint x="390" y="1250" as="sourcePoint" />
            <mxPoint x="440" y="1200" as="targetPoint" />
            <Array as="points">
              <mxPoint x="600" y="1291" />
              <mxPoint x="600" y="1035" />
            </Array>
          </mxGeometry>
        </mxCell>
        <mxCell id="rtPE3BVUv4YDp1QE3gb5-153" value="Yes" style="endArrow=classic;html=1;rounded=1;exitX=0.5;exitY=1;exitDx=0;exitDy=0;entryX=0;entryY=0.5;entryDx=0;entryDy=0;edgeStyle=orthogonalEdgeStyle;" edge="1" parent="1" source="rtPE3BVUv4YDp1QE3gb5-117" target="rtPE3BVUv4YDp1QE3gb5-119">
          <mxGeometry width="50" height="50" relative="1" as="geometry">
            <mxPoint x="390" y="1160" as="sourcePoint" />
            <mxPoint x="440" y="1110" as="targetPoint" />
          </mxGeometry>
        </mxCell>
        <mxCell id="rtPE3BVUv4YDp1QE3gb5-155" value="" style="endArrow=classic;html=1;rounded=1;exitX=1;exitY=0.5;exitDx=0;exitDy=0;entryX=1;entryY=0.5;entryDx=0;entryDy=0;edgeStyle=orthogonalEdgeStyle;" edge="1" parent="1" source="rtPE3BVUv4YDp1QE3gb5-119" target="rtPE3BVUv4YDp1QE3gb5-120">
          <mxGeometry width="50" height="50" relative="1" as="geometry">
            <mxPoint x="440" y="1300" as="sourcePoint" />
            <mxPoint x="490" y="1250" as="targetPoint" />
          </mxGeometry>
        </mxCell>
        <mxCell id="rtPE3BVUv4YDp1QE3gb5-156" value="" style="endArrow=classic;html=1;rounded=1;exitX=0;exitY=0.5;exitDx=0;exitDy=0;entryX=0.5;entryY=1;entryDx=0;entryDy=0;edgeStyle=orthogonalEdgeStyle;" edge="1" parent="1" source="rtPE3BVUv4YDp1QE3gb5-157" target="rtPE3BVUv4YDp1QE3gb5-103">
          <mxGeometry width="50" height="50" relative="1" as="geometry">
            <mxPoint x="370" y="1380" as="sourcePoint" />
            <mxPoint x="420" y="1330" as="targetPoint" />
            <Array as="points">
              <mxPoint x="405" y="1350" />
              <mxPoint x="50" y="1350" />
              <mxPoint x="50" y="860" />
              <mxPoint x="80" y="860" />
            </Array>
          </mxGeometry>
        </mxCell>
        <mxCell id="rtPE3BVUv4YDp1QE3gb5-157" value="" style="ellipse;whiteSpace=wrap;html=1;rounded=1;rotation=90;fillColor=#000000;" vertex="1" parent="1">
          <mxGeometry x="380" y="1340" width="50" height="20" as="geometry" />
        </mxCell>
        <mxCell id="rtPE3BVUv4YDp1QE3gb5-159" value="" style="endArrow=classic;html=1;rounded=1;exitX=0;exitY=0.5;exitDx=0;exitDy=0;entryX=0.5;entryY=0;entryDx=0;entryDy=0;" edge="1" parent="1" source="rtPE3BVUv4YDp1QE3gb5-120" target="rtPE3BVUv4YDp1QE3gb5-157">
          <mxGeometry width="50" height="50" relative="1" as="geometry">
            <mxPoint x="410" y="1375" as="sourcePoint" />
            <mxPoint x="460" y="1325" as="targetPoint" />
          </mxGeometry>
        </mxCell>
        <mxCell id="rtPE3BVUv4YDp1QE3gb5-160" value="" style="endArrow=classic;html=1;rounded=1;exitX=0.5;exitY=1;exitDx=0;exitDy=0;entryX=0.5;entryY=0;entryDx=0;entryDy=0;edgeStyle=orthogonalEdgeStyle;" edge="1" parent="1" source="rtPE3BVUv4YDp1QE3gb5-157" target="rtPE3BVUv4YDp1QE3gb5-161">
          <mxGeometry width="50" height="50" relative="1" as="geometry">
            <mxPoint x="225" y="1360" as="sourcePoint" />
            <mxPoint x="275" y="1310" as="targetPoint" />
            <Array as="points">
              <mxPoint x="20" y="1350" />
              <mxPoint x="20" y="930" />
              <mxPoint x="-182" y="930" />
            </Array>
          </mxGeometry>
        </mxCell>
        <mxCell id="rtPE3BVUv4YDp1QE3gb5-161" value="" style="ellipse;whiteSpace=wrap;html=1;rounded=1;rotation=0;fillColor=#000000;" vertex="1" parent="1">
          <mxGeometry x="-207.5" y="1000" width="50" height="20" as="geometry" />
        </mxCell>
        <mxCell id="rtPE3BVUv4YDp1QE3gb5-163" value="" style="endArrow=classic;html=1;rounded=1;exitX=0.5;exitY=1;exitDx=0;exitDy=0;" edge="1" parent="1" source="rtPE3BVUv4YDp1QE3gb5-161" target="rtPE3BVUv4YDp1QE3gb5-55">
          <mxGeometry width="50" height="50" relative="1" as="geometry">
            <mxPoint x="-157.5" y="975" as="sourcePoint" />
            <mxPoint x="-107.5" y="925" as="targetPoint" />
          </mxGeometry>
        </mxCell>
        <mxCell id="rtPE3BVUv4YDp1QE3gb5-164" value="" style="endArrow=classic;html=1;rounded=1;exitX=0.5;exitY=1;exitDx=0;exitDy=0;entryX=0.5;entryY=0;entryDx=0;entryDy=0;edgeStyle=orthogonalEdgeStyle;" edge="1" parent="1" source="rtPE3BVUv4YDp1QE3gb5-65" target="rtPE3BVUv4YDp1QE3gb5-161">
          <mxGeometry width="50" height="50" relative="1" as="geometry">
            <mxPoint x="140" y="840" as="sourcePoint" />
            <mxPoint x="190" y="790" as="targetPoint" />
            <Array as="points">
              <mxPoint x="-182" y="710" />
              <mxPoint x="-182" y="948" />
            </Array>
          </mxGeometry>
        </mxCell>
        <mxCell id="rtPE3BVUv4YDp1QE3gb5-165" value="Display Character Info Home" style="rounded=1;whiteSpace=wrap;html=1;" vertex="1" parent="1">
          <mxGeometry x="460" y="1420" width="100" height="30" as="geometry" />
        </mxCell>
        <mxCell id="rtPE3BVUv4YDp1QE3gb5-167" value="Yes" style="endArrow=classic;html=1;rounded=1;exitX=0.5;exitY=1;exitDx=0;exitDy=0;edgeStyle=orthogonalEdgeStyle;entryX=0;entryY=0.5;entryDx=0;entryDy=0;" edge="1" parent="1" source="rtPE3BVUv4YDp1QE3gb5-53" target="rtPE3BVUv4YDp1QE3gb5-165">
          <mxGeometry x="-0.9367" width="50" height="50" relative="1" as="geometry">
            <mxPoint x="140" y="840" as="sourcePoint" />
            <mxPoint x="454" y="1440" as="targetPoint" />
            <Array as="points">
              <mxPoint x="-40" y="650" />
              <mxPoint x="-40" y="1435" />
            </Array>
            <mxPoint as="offset" />
          </mxGeometry>
        </mxCell>
        <mxCell id="rtPE3BVUv4YDp1QE3gb5-168" value="Filter elements" style="rounded=1;whiteSpace=wrap;html=1;" vertex="1" parent="1">
          <mxGeometry x="320" y="1500" width="80" height="30" as="geometry" />
        </mxCell>
        <mxCell id="rtPE3BVUv4YDp1QE3gb5-169" value="Filter weapons" style="rounded=1;whiteSpace=wrap;html=1;" vertex="1" parent="1">
          <mxGeometry x="225" y="1500" width="80" height="30" as="geometry" />
        </mxCell>
        <mxCell id="rtPE3BVUv4YDp1QE3gb5-170" value="Filter rarity" style="rounded=1;whiteSpace=wrap;html=1;" vertex="1" parent="1">
          <mxGeometry x="127.5" y="1500" width="80" height="30" as="geometry" />
        </mxCell>
        <mxCell id="rtPE3BVUv4YDp1QE3gb5-171" value="" style="endArrow=classic;html=1;rounded=1;exitX=0.5;exitY=1;exitDx=0;exitDy=0;entryX=0.5;entryY=0;entryDx=0;entryDy=0;edgeStyle=orthogonalEdgeStyle;" edge="1" parent="1" source="rtPE3BVUv4YDp1QE3gb5-165" target="rtPE3BVUv4YDp1QE3gb5-172">
          <mxGeometry width="50" height="50" relative="1" as="geometry">
            <mxPoint x="140" y="1490" as="sourcePoint" />
            <mxPoint x="190" y="1440" as="targetPoint" />
          </mxGeometry>
        </mxCell>
        <mxCell id="rtPE3BVUv4YDp1QE3gb5-172" value="" style="ellipse;whiteSpace=wrap;html=1;rounded=1;rotation=90;fillColor=#000000;" vertex="1" parent="1">
          <mxGeometry x="360" y="1460" width="50" height="20" as="geometry" />
        </mxCell>
        <mxCell id="rtPE3BVUv4YDp1QE3gb5-174" value="" style="endArrow=classic;html=1;rounded=1;exitX=0.5;exitY=1;exitDx=0;exitDy=0;entryX=0.363;entryY=0.05;entryDx=0;entryDy=0;entryPerimeter=0;edgeStyle=orthogonalEdgeStyle;" edge="1" parent="1" source="rtPE3BVUv4YDp1QE3gb5-172" target="rtPE3BVUv4YDp1QE3gb5-168">
          <mxGeometry width="50" height="50" relative="1" as="geometry">
            <mxPoint x="140" y="1490" as="sourcePoint" />
            <mxPoint x="190" y="1440" as="targetPoint" />
          </mxGeometry>
        </mxCell>
        <mxCell id="rtPE3BVUv4YDp1QE3gb5-175" value="" style="endArrow=classic;html=1;rounded=1;exitX=0.5;exitY=1;exitDx=0;exitDy=0;entryX=0.5;entryY=0;entryDx=0;entryDy=0;edgeStyle=orthogonalEdgeStyle;" edge="1" parent="1" source="rtPE3BVUv4YDp1QE3gb5-172" target="rtPE3BVUv4YDp1QE3gb5-169">
          <mxGeometry width="50" height="50" relative="1" as="geometry">
            <mxPoint x="140" y="1490" as="sourcePoint" />
            <mxPoint x="190" y="1440" as="targetPoint" />
          </mxGeometry>
        </mxCell>
        <mxCell id="rtPE3BVUv4YDp1QE3gb5-176" value="" style="endArrow=classic;html=1;rounded=1;entryX=0.5;entryY=0;entryDx=0;entryDy=0;edgeStyle=orthogonalEdgeStyle;" edge="1" parent="1" source="rtPE3BVUv4YDp1QE3gb5-172" target="rtPE3BVUv4YDp1QE3gb5-170">
          <mxGeometry width="50" height="50" relative="1" as="geometry">
            <mxPoint x="140" y="1490" as="sourcePoint" />
            <mxPoint x="190" y="1440" as="targetPoint" />
          </mxGeometry>
        </mxCell>
        <mxCell id="rtPE3BVUv4YDp1QE3gb5-177" value="Filter characters based on input" style="rounded=1;whiteSpace=wrap;html=1;" vertex="1" parent="1">
          <mxGeometry x="460" y="1545" width="100" height="30" as="geometry" />
        </mxCell>
        <mxCell id="rtPE3BVUv4YDp1QE3gb5-178" value="Display filter result" style="rounded=1;whiteSpace=wrap;html=1;" vertex="1" parent="1">
          <mxGeometry x="600" y="1545" width="100" height="30" as="geometry" />
        </mxCell>
        <mxCell id="rtPE3BVUv4YDp1QE3gb5-179" value="Press&amp;nbsp;&lt;div&gt;character&lt;/div&gt;" style="rhombus;whiteSpace=wrap;html=1;rounded=1;" vertex="1" parent="1">
          <mxGeometry x="45" y="1485" width="70" height="70" as="geometry" />
        </mxCell>
        <mxCell id="rtPE3BVUv4YDp1QE3gb5-180" value="" style="endArrow=classic;html=1;rounded=1;exitX=0.5;exitY=1;exitDx=0;exitDy=0;entryX=0.5;entryY=0;entryDx=0;entryDy=0;edgeStyle=orthogonalEdgeStyle;" edge="1" parent="1" source="rtPE3BVUv4YDp1QE3gb5-172" target="rtPE3BVUv4YDp1QE3gb5-179">
          <mxGeometry width="50" height="50" relative="1" as="geometry">
            <mxPoint x="140" y="1490" as="sourcePoint" />
            <mxPoint x="190" y="1440" as="targetPoint" />
          </mxGeometry>
        </mxCell>
        <mxCell id="rtPE3BVUv4YDp1QE3gb5-181" value="Yes" style="endArrow=classic;html=1;rounded=1;exitX=0;exitY=0.5;exitDx=0;exitDy=0;entryX=0.5;entryY=1;entryDx=0;entryDy=0;edgeStyle=orthogonalEdgeStyle;" edge="1" parent="1" source="rtPE3BVUv4YDp1QE3gb5-188" target="rtPE3BVUv4YDp1QE3gb5-107">
          <mxGeometry x="-0.9604" width="50" height="50" relative="1" as="geometry">
            <mxPoint x="140" y="1490" as="sourcePoint" />
            <mxPoint x="190" y="1440" as="targetPoint" />
            <Array as="points">
              <mxPoint x="-70" y="1520" />
              <mxPoint x="-70" y="500" />
            </Array>
            <mxPoint as="offset" />
          </mxGeometry>
        </mxCell>
        <mxCell id="rtPE3BVUv4YDp1QE3gb5-108" value="Yes" style="endArrow=classic;html=1;rounded=1;exitX=0;exitY=0.5;exitDx=0;exitDy=0;entryX=0.5;entryY=1;entryDx=0;entryDy=0;edgeStyle=orthogonalEdgeStyle;" edge="1" parent="1" source="rtPE3BVUv4YDp1QE3gb5-103" target="rtPE3BVUv4YDp1QE3gb5-107">
          <mxGeometry x="-0.874" width="50" height="50" relative="1" as="geometry">
            <mxPoint x="40" y="780" as="sourcePoint" />
            <mxPoint x="450" y="505" as="targetPoint" />
            <Array as="points">
              <mxPoint x="30" y="780" />
              <mxPoint x="30" y="500" />
            </Array>
            <mxPoint as="offset" />
          </mxGeometry>
        </mxCell>
        <mxCell id="rtPE3BVUv4YDp1QE3gb5-182" value="" style="ellipse;whiteSpace=wrap;html=1;rounded=1;rotation=90;fillColor=#000000;" vertex="1" parent="1">
          <mxGeometry x="375" y="1550" width="50" height="20" as="geometry" />
        </mxCell>
        <mxCell id="rtPE3BVUv4YDp1QE3gb5-183" value="" style="endArrow=classic;html=1;rounded=1;exitX=0.5;exitY=1;exitDx=0;exitDy=0;entryX=0.5;entryY=1;entryDx=0;entryDy=0;edgeStyle=orthogonalEdgeStyle;" edge="1" parent="1" source="rtPE3BVUv4YDp1QE3gb5-168" target="rtPE3BVUv4YDp1QE3gb5-182">
          <mxGeometry width="50" height="50" relative="1" as="geometry">
            <mxPoint x="200" y="1560" as="sourcePoint" />
            <mxPoint x="250" y="1510" as="targetPoint" />
          </mxGeometry>
        </mxCell>
        <mxCell id="rtPE3BVUv4YDp1QE3gb5-184" value="" style="endArrow=classic;html=1;rounded=1;exitX=0.5;exitY=1;exitDx=0;exitDy=0;entryX=0.5;entryY=1;entryDx=0;entryDy=0;edgeStyle=orthogonalEdgeStyle;" edge="1" parent="1" source="rtPE3BVUv4YDp1QE3gb5-169" target="rtPE3BVUv4YDp1QE3gb5-182">
          <mxGeometry width="50" height="50" relative="1" as="geometry">
            <mxPoint x="200" y="1560" as="sourcePoint" />
            <mxPoint x="250" y="1510" as="targetPoint" />
          </mxGeometry>
        </mxCell>
        <mxCell id="rtPE3BVUv4YDp1QE3gb5-185" value="" style="endArrow=classic;html=1;rounded=1;exitX=0.5;exitY=1;exitDx=0;exitDy=0;edgeStyle=orthogonalEdgeStyle;" edge="1" parent="1" source="rtPE3BVUv4YDp1QE3gb5-170">
          <mxGeometry width="50" height="50" relative="1" as="geometry">
            <mxPoint x="200" y="1560" as="sourcePoint" />
            <mxPoint x="390" y="1560" as="targetPoint" />
            <Array as="points">
              <mxPoint x="168" y="1560" />
            </Array>
          </mxGeometry>
        </mxCell>
        <mxCell id="rtPE3BVUv4YDp1QE3gb5-186" value="" style="endArrow=classic;html=1;rounded=1;exitX=0.5;exitY=0;exitDx=0;exitDy=0;entryX=0;entryY=0.5;entryDx=0;entryDy=0;" edge="1" parent="1" source="rtPE3BVUv4YDp1QE3gb5-182" target="rtPE3BVUv4YDp1QE3gb5-177">
          <mxGeometry width="50" height="50" relative="1" as="geometry">
            <mxPoint x="390" y="1560" as="sourcePoint" />
            <mxPoint x="440" y="1510" as="targetPoint" />
          </mxGeometry>
        </mxCell>
        <mxCell id="rtPE3BVUv4YDp1QE3gb5-187" value="" style="endArrow=classic;html=1;rounded=1;exitX=1;exitY=0.5;exitDx=0;exitDy=0;entryX=0;entryY=0.5;entryDx=0;entryDy=0;" edge="1" parent="1" source="rtPE3BVUv4YDp1QE3gb5-177" target="rtPE3BVUv4YDp1QE3gb5-178">
          <mxGeometry width="50" height="50" relative="1" as="geometry">
            <mxPoint x="390" y="1560" as="sourcePoint" />
            <mxPoint x="440" y="1510" as="targetPoint" />
          </mxGeometry>
        </mxCell>
        <mxCell id="rtPE3BVUv4YDp1QE3gb5-188" value="Press&amp;nbsp;&lt;div&gt;exit&lt;/div&gt;" style="rhombus;whiteSpace=wrap;html=1;rounded=1;" vertex="1" parent="1">
          <mxGeometry x="-20" y="1490" width="57.5" height="60" as="geometry" />
        </mxCell>
        <mxCell id="rtPE3BVUv4YDp1QE3gb5-190" value="" style="endArrow=classic;html=1;rounded=1;exitX=0.5;exitY=1;exitDx=0;exitDy=0;entryX=0.5;entryY=0;entryDx=0;entryDy=0;edgeStyle=orthogonalEdgeStyle;" edge="1" parent="1" source="rtPE3BVUv4YDp1QE3gb5-172" target="rtPE3BVUv4YDp1QE3gb5-188">
          <mxGeometry width="50" height="50" relative="1" as="geometry">
            <mxPoint x="260" y="1540" as="sourcePoint" />
            <mxPoint x="310" y="1490" as="targetPoint" />
          </mxGeometry>
        </mxCell>
        <mxCell id="rtPE3BVUv4YDp1QE3gb5-191" value="Display Character Details" style="rounded=1;whiteSpace=wrap;html=1;" vertex="1" parent="1">
          <mxGeometry x="460" y="1610" width="100" height="30" as="geometry" />
        </mxCell>
        <mxCell id="rtPE3BVUv4YDp1QE3gb5-192" value="Yes" style="endArrow=classic;html=1;rounded=1;exitX=0.5;exitY=1;exitDx=0;exitDy=0;entryX=0;entryY=0.5;entryDx=0;entryDy=0;edgeStyle=orthogonalEdgeStyle;" edge="1" parent="1" source="rtPE3BVUv4YDp1QE3gb5-179" target="rtPE3BVUv4YDp1QE3gb5-191">
          <mxGeometry x="-0.8889" width="50" height="50" relative="1" as="geometry">
            <mxPoint x="260" y="1640" as="sourcePoint" />
            <mxPoint x="310" y="1590" as="targetPoint" />
            <mxPoint as="offset" />
          </mxGeometry>
        </mxCell>
        <mxCell id="rtPE3BVUv4YDp1QE3gb5-193" value="Get character&#39;s name" style="rounded=1;whiteSpace=wrap;html=1;" vertex="1" parent="1">
          <mxGeometry x="460" y="1660" width="100" height="30" as="geometry" />
        </mxCell>
        <mxCell id="rtPE3BVUv4YDp1QE3gb5-194" value="Get corresponding url" style="rounded=1;whiteSpace=wrap;html=1;" vertex="1" parent="1">
          <mxGeometry x="650" y="1610" width="100" height="30" as="geometry" />
        </mxCell>
        <mxCell id="rtPE3BVUv4YDp1QE3gb5-195" value="Do web scrapping" style="rounded=1;whiteSpace=wrap;html=1;" vertex="1" parent="1">
          <mxGeometry x="770" y="1610" width="100" height="30" as="geometry" />
        </mxCell>
        <mxCell id="rtPE3BVUv4YDp1QE3gb5-197" value="" style="ellipse;whiteSpace=wrap;html=1;rounded=1;rotation=90;fillColor=#000000;" vertex="1" parent="1">
          <mxGeometry x="590" y="1665" width="50" height="20" as="geometry" />
        </mxCell>
        <mxCell id="rtPE3BVUv4YDp1QE3gb5-198" value="" style="endArrow=classic;html=1;rounded=1;exitX=1;exitY=0.5;exitDx=0;exitDy=0;entryX=0.5;entryY=1;entryDx=0;entryDy=0;" edge="1" parent="1" source="rtPE3BVUv4YDp1QE3gb5-193" target="rtPE3BVUv4YDp1QE3gb5-197">
          <mxGeometry width="50" height="50" relative="1" as="geometry">
            <mxPoint x="520" y="1740" as="sourcePoint" />
            <mxPoint x="570" y="1690" as="targetPoint" />
          </mxGeometry>
        </mxCell>
        <mxCell id="rtPE3BVUv4YDp1QE3gb5-200" value="Show character info" style="rounded=1;whiteSpace=wrap;html=1;" vertex="1" parent="1">
          <mxGeometry x="890" y="1610" width="100" height="30" as="geometry" />
        </mxCell>
        <mxCell id="rtPE3BVUv4YDp1QE3gb5-201" value="Get corresponding picture" style="rounded=1;whiteSpace=wrap;html=1;" vertex="1" parent="1">
          <mxGeometry x="660" y="1660" width="120" height="30" as="geometry" />
        </mxCell>
        <mxCell id="rtPE3BVUv4YDp1QE3gb5-202" value="Show picture" style="rounded=1;whiteSpace=wrap;html=1;" vertex="1" parent="1">
          <mxGeometry x="810" y="1660" width="100" height="30" as="geometry" />
        </mxCell>
        <mxCell id="rtPE3BVUv4YDp1QE3gb5-203" value="Get corresponding bgm" style="rounded=1;whiteSpace=wrap;html=1;" vertex="1" parent="1">
          <mxGeometry x="660" y="1710" width="120" height="30" as="geometry" />
        </mxCell>
        <mxCell id="rtPE3BVUv4YDp1QE3gb5-204" value="Play music" style="rounded=1;whiteSpace=wrap;html=1;" vertex="1" parent="1">
          <mxGeometry x="810" y="1710" width="100" height="30" as="geometry" />
        </mxCell>
        <mxCell id="rtPE3BVUv4YDp1QE3gb5-205" value="Get corresponding audio" style="rounded=1;whiteSpace=wrap;html=1;" vertex="1" parent="1">
          <mxGeometry x="660" y="1760" width="120" height="30" as="geometry" />
        </mxCell>
        <mxCell id="rtPE3BVUv4YDp1QE3gb5-206" value="" style="endArrow=classic;html=1;rounded=1;exitX=0.5;exitY=0;exitDx=0;exitDy=0;entryX=0;entryY=0.5;entryDx=0;entryDy=0;edgeStyle=orthogonalEdgeStyle;" edge="1" parent="1" source="rtPE3BVUv4YDp1QE3gb5-197" target="rtPE3BVUv4YDp1QE3gb5-194">
          <mxGeometry width="50" height="50" relative="1" as="geometry">
            <mxPoint x="620" y="1740" as="sourcePoint" />
            <mxPoint x="670" y="1690" as="targetPoint" />
          </mxGeometry>
        </mxCell>
        <mxCell id="rtPE3BVUv4YDp1QE3gb5-207" value="" style="endArrow=classic;html=1;rounded=1;exitX=0.5;exitY=0;exitDx=0;exitDy=0;entryX=0;entryY=0.5;entryDx=0;entryDy=0;edgeStyle=orthogonalEdgeStyle;" edge="1" parent="1" source="rtPE3BVUv4YDp1QE3gb5-197" target="rtPE3BVUv4YDp1QE3gb5-201">
          <mxGeometry width="50" height="50" relative="1" as="geometry">
            <mxPoint x="620" y="1740" as="sourcePoint" />
            <mxPoint x="670" y="1690" as="targetPoint" />
          </mxGeometry>
        </mxCell>
        <mxCell id="rtPE3BVUv4YDp1QE3gb5-208" value="" style="endArrow=classic;html=1;rounded=1;exitX=0.5;exitY=0;exitDx=0;exitDy=0;entryX=0;entryY=0.25;entryDx=0;entryDy=0;edgeStyle=orthogonalEdgeStyle;" edge="1" parent="1" source="rtPE3BVUv4YDp1QE3gb5-197" target="rtPE3BVUv4YDp1QE3gb5-203">
          <mxGeometry width="50" height="50" relative="1" as="geometry">
            <mxPoint x="620" y="1740" as="sourcePoint" />
            <mxPoint x="670" y="1690" as="targetPoint" />
          </mxGeometry>
        </mxCell>
        <mxCell id="rtPE3BVUv4YDp1QE3gb5-209" value="" style="endArrow=classic;html=1;rounded=1;exitX=0.5;exitY=0;exitDx=0;exitDy=0;entryX=0;entryY=0.5;entryDx=0;entryDy=0;edgeStyle=orthogonalEdgeStyle;" edge="1" parent="1" source="rtPE3BVUv4YDp1QE3gb5-197" target="rtPE3BVUv4YDp1QE3gb5-205">
          <mxGeometry width="50" height="50" relative="1" as="geometry">
            <mxPoint x="620" y="1740" as="sourcePoint" />
            <mxPoint x="670" y="1690" as="targetPoint" />
          </mxGeometry>
        </mxCell>
        <mxCell id="rtPE3BVUv4YDp1QE3gb5-210" value="" style="endArrow=classic;html=1;rounded=1;exitX=1;exitY=0.5;exitDx=0;exitDy=0;entryX=0;entryY=0.5;entryDx=0;entryDy=0;" edge="1" parent="1" source="rtPE3BVUv4YDp1QE3gb5-194" target="rtPE3BVUv4YDp1QE3gb5-195">
          <mxGeometry width="50" height="50" relative="1" as="geometry">
            <mxPoint x="620" y="1740" as="sourcePoint" />
            <mxPoint x="670" y="1690" as="targetPoint" />
          </mxGeometry>
        </mxCell>
        <mxCell id="rtPE3BVUv4YDp1QE3gb5-211" value="" style="endArrow=classic;html=1;rounded=1;entryX=0;entryY=0.5;entryDx=0;entryDy=0;" edge="1" parent="1" target="rtPE3BVUv4YDp1QE3gb5-200">
          <mxGeometry width="50" height="50" relative="1" as="geometry">
            <mxPoint x="870" y="1625" as="sourcePoint" />
            <mxPoint x="920" y="1575" as="targetPoint" />
          </mxGeometry>
        </mxCell>
        <mxCell id="rtPE3BVUv4YDp1QE3gb5-212" value="" style="endArrow=classic;html=1;rounded=1;exitX=1;exitY=0.5;exitDx=0;exitDy=0;entryX=0;entryY=0.5;entryDx=0;entryDy=0;" edge="1" parent="1" source="rtPE3BVUv4YDp1QE3gb5-201" target="rtPE3BVUv4YDp1QE3gb5-202">
          <mxGeometry width="50" height="50" relative="1" as="geometry">
            <mxPoint x="810" y="1700" as="sourcePoint" />
            <mxPoint x="860" y="1650" as="targetPoint" />
          </mxGeometry>
        </mxCell>
        <mxCell id="rtPE3BVUv4YDp1QE3gb5-213" value="" style="endArrow=classic;html=1;rounded=1;exitX=1;exitY=0.5;exitDx=0;exitDy=0;entryX=0;entryY=0.5;entryDx=0;entryDy=0;" edge="1" parent="1" source="rtPE3BVUv4YDp1QE3gb5-203" target="rtPE3BVUv4YDp1QE3gb5-204">
          <mxGeometry width="50" height="50" relative="1" as="geometry">
            <mxPoint x="800" y="1735" as="sourcePoint" />
            <mxPoint x="850" y="1685" as="targetPoint" />
          </mxGeometry>
        </mxCell>
        <mxCell id="rtPE3BVUv4YDp1QE3gb5-215" value="Press&amp;nbsp;&lt;span style=&quot;background-color: initial;&quot;&gt;Play button&lt;/span&gt;" style="rhombus;whiteSpace=wrap;html=1;rounded=1;" vertex="1" parent="1">
          <mxGeometry x="310" y="1710" width="75" height="80" as="geometry" />
        </mxCell>
        <mxCell id="rtPE3BVUv4YDp1QE3gb5-217" value="Play voiceline" style="rounded=1;whiteSpace=wrap;html=1;" vertex="1" parent="1">
          <mxGeometry x="440" y="1835" width="120" height="30" as="geometry" />
        </mxCell>
        <mxCell id="rtPE3BVUv4YDp1QE3gb5-218" value="Press&amp;nbsp;&lt;span style=&quot;background-color: initial;&quot;&gt;Pause button&lt;/span&gt;" style="rhombus;whiteSpace=wrap;html=1;rounded=1;" vertex="1" parent="1">
          <mxGeometry x="310" y="1810" width="75" height="80" as="geometry" />
        </mxCell>
        <mxCell id="rtPE3BVUv4YDp1QE3gb5-219" value="Stop voiceline" style="rounded=1;whiteSpace=wrap;html=1;" vertex="1" parent="1">
          <mxGeometry x="610" y="1835" width="120" height="30" as="geometry" />
        </mxCell>
        <mxCell id="rtPE3BVUv4YDp1QE3gb5-220" value="Yes" style="endArrow=classic;html=1;rounded=1;exitX=0.5;exitY=1;exitDx=0;exitDy=0;entryX=0.5;entryY=0;entryDx=0;entryDy=0;edgeStyle=orthogonalEdgeStyle;" edge="1" parent="1" source="rtPE3BVUv4YDp1QE3gb5-215" target="rtPE3BVUv4YDp1QE3gb5-217">
          <mxGeometry x="-0.6709" width="50" height="50" relative="1" as="geometry">
            <mxPoint x="390" y="1840" as="sourcePoint" />
            <mxPoint x="440" y="1790" as="targetPoint" />
            <Array as="points">
              <mxPoint x="348" y="1800" />
              <mxPoint x="500" y="1800" />
            </Array>
            <mxPoint x="1" as="offset" />
          </mxGeometry>
        </mxCell>
        <mxCell id="rtPE3BVUv4YDp1QE3gb5-221" value="" style="endArrow=classic;html=1;rounded=1;exitX=0;exitY=0.5;exitDx=0;exitDy=0;entryX=1;entryY=0.5;entryDx=0;entryDy=0;" edge="1" parent="1" source="rtPE3BVUv4YDp1QE3gb5-217" target="rtPE3BVUv4YDp1QE3gb5-218">
          <mxGeometry width="50" height="50" relative="1" as="geometry">
            <mxPoint x="390" y="1840" as="sourcePoint" />
            <mxPoint x="440" y="1790" as="targetPoint" />
          </mxGeometry>
        </mxCell>
        <mxCell id="rtPE3BVUv4YDp1QE3gb5-222" value="Yes" style="endArrow=classic;html=1;rounded=1;exitX=0.5;exitY=1;exitDx=0;exitDy=0;entryX=0.5;entryY=1;entryDx=0;entryDy=0;edgeStyle=orthogonalEdgeStyle;" edge="1" parent="1" source="rtPE3BVUv4YDp1QE3gb5-218" target="rtPE3BVUv4YDp1QE3gb5-219">
          <mxGeometry x="-0.8231" width="50" height="50" relative="1" as="geometry">
            <mxPoint x="390" y="1840" as="sourcePoint" />
            <mxPoint x="440" y="1790" as="targetPoint" />
            <mxPoint as="offset" />
          </mxGeometry>
        </mxCell>
        <mxCell id="rtPE3BVUv4YDp1QE3gb5-223" value="" style="ellipse;whiteSpace=wrap;html=1;rounded=1;rotation=90;fillColor=#000000;" vertex="1" parent="1">
          <mxGeometry x="520" y="1770" width="50" height="20" as="geometry" />
        </mxCell>
        <mxCell id="rtPE3BVUv4YDp1QE3gb5-224" value="" style="endArrow=classic;html=1;rounded=1;exitX=0.5;exitY=1;exitDx=0;exitDy=0;entryX=1;entryY=0.5;entryDx=0;entryDy=0;edgeStyle=orthogonalEdgeStyle;" edge="1" parent="1" source="rtPE3BVUv4YDp1QE3gb5-223" target="rtPE3BVUv4YDp1QE3gb5-215">
          <mxGeometry width="50" height="50" relative="1" as="geometry">
            <mxPoint x="390" y="1740" as="sourcePoint" />
            <mxPoint x="440" y="1690" as="targetPoint" />
          </mxGeometry>
        </mxCell>
        <mxCell id="rtPE3BVUv4YDp1QE3gb5-225" value="" style="endArrow=classic;html=1;rounded=1;exitX=0.5;exitY=1;exitDx=0;exitDy=0;entryX=0.5;entryY=0;entryDx=0;entryDy=0;edgeStyle=orthogonalEdgeStyle;" edge="1" parent="1" source="rtPE3BVUv4YDp1QE3gb5-205" target="rtPE3BVUv4YDp1QE3gb5-223">
          <mxGeometry width="50" height="50" relative="1" as="geometry">
            <mxPoint x="390" y="1740" as="sourcePoint" />
            <mxPoint x="440" y="1690" as="targetPoint" />
          </mxGeometry>
        </mxCell>
        <mxCell id="rtPE3BVUv4YDp1QE3gb5-226" value="" style="endArrow=classic;html=1;rounded=1;exitX=0.5;exitY=0;exitDx=0;exitDy=0;entryX=0.5;entryY=0;entryDx=0;entryDy=0;edgeStyle=orthogonalEdgeStyle;" edge="1" parent="1" source="rtPE3BVUv4YDp1QE3gb5-219" target="rtPE3BVUv4YDp1QE3gb5-223">
          <mxGeometry width="50" height="50" relative="1" as="geometry">
            <mxPoint x="390" y="1740" as="sourcePoint" />
            <mxPoint x="440" y="1690" as="targetPoint" />
            <Array as="points">
              <mxPoint x="670" y="1800" />
              <mxPoint x="610" y="1800" />
              <mxPoint x="610" y="1780" />
            </Array>
          </mxGeometry>
        </mxCell>
        <mxCell id="rtPE3BVUv4YDp1QE3gb5-227" value="" style="ellipse;whiteSpace=wrap;html=1;rounded=1;rotation=-180;fillColor=#000000;" vertex="1" parent="1">
          <mxGeometry x="350" y="1665" width="50" height="20" as="geometry" />
        </mxCell>
        <mxCell id="rtPE3BVUv4YDp1QE3gb5-228" value="" style="endArrow=classic;html=1;rounded=1;entryX=0.5;entryY=1;entryDx=0;entryDy=0;exitX=0.5;exitY=1;exitDx=0;exitDy=0;edgeStyle=orthogonalEdgeStyle;" edge="1" parent="1" source="rtPE3BVUv4YDp1QE3gb5-191" target="rtPE3BVUv4YDp1QE3gb5-227">
          <mxGeometry width="50" height="50" relative="1" as="geometry">
            <mxPoint x="340" y="1740" as="sourcePoint" />
            <mxPoint x="390" y="1690" as="targetPoint" />
          </mxGeometry>
        </mxCell>
        <mxCell id="rtPE3BVUv4YDp1QE3gb5-229" value="" style="endArrow=classic;html=1;rounded=1;exitX=0;exitY=0.5;exitDx=0;exitDy=0;entryX=0;entryY=0.5;entryDx=0;entryDy=0;edgeStyle=orthogonalEdgeStyle;" edge="1" parent="1" source="rtPE3BVUv4YDp1QE3gb5-227" target="rtPE3BVUv4YDp1QE3gb5-193">
          <mxGeometry width="50" height="50" relative="1" as="geometry">
            <mxPoint x="340" y="1740" as="sourcePoint" />
            <mxPoint x="390" y="1690" as="targetPoint" />
          </mxGeometry>
        </mxCell>
        <mxCell id="rtPE3BVUv4YDp1QE3gb5-230" value="Press&amp;nbsp;&lt;div&gt;exit&lt;/div&gt;" style="rhombus;whiteSpace=wrap;html=1;rounded=1;" vertex="1" parent="1">
          <mxGeometry x="237.5" y="1690" width="57.5" height="60" as="geometry" />
        </mxCell>
        <mxCell id="rtPE3BVUv4YDp1QE3gb5-231" value="" style="endArrow=classic;html=1;rounded=1;exitX=1;exitY=0.5;exitDx=0;exitDy=0;entryX=0.5;entryY=0;entryDx=0;entryDy=0;edgeStyle=orthogonalEdgeStyle;" edge="1" parent="1" source="rtPE3BVUv4YDp1QE3gb5-227" target="rtPE3BVUv4YDp1QE3gb5-230">
          <mxGeometry width="50" height="50" relative="1" as="geometry">
            <mxPoint x="220" y="1640" as="sourcePoint" />
            <mxPoint x="270" y="1590" as="targetPoint" />
          </mxGeometry>
        </mxCell>
        <mxCell id="rtPE3BVUv4YDp1QE3gb5-232" value="Yes" style="endArrow=classic;html=1;rounded=1;exitX=0;exitY=0.5;exitDx=0;exitDy=0;entryX=1;entryY=0.5;entryDx=0;entryDy=0;edgeStyle=orthogonalEdgeStyle;" edge="1" parent="1" source="rtPE3BVUv4YDp1QE3gb5-230" target="rtPE3BVUv4YDp1QE3gb5-165">
          <mxGeometry x="-0.8815" width="50" height="50" relative="1" as="geometry">
            <mxPoint x="220" y="1640" as="sourcePoint" />
            <mxPoint x="270" y="1590" as="targetPoint" />
            <Array as="points">
              <mxPoint x="228" y="1720" />
              <mxPoint x="228" y="1600" />
              <mxPoint x="580" y="1600" />
              <mxPoint x="580" y="1435" />
            </Array>
            <mxPoint as="offset" />
          </mxGeometry>
        </mxCell>
        <mxCell id="rtPE3BVUv4YDp1QE3gb5-234" value="" style="endArrow=classic;html=1;rounded=1;exitX=0.5;exitY=1;exitDx=0;exitDy=0;edgeStyle=orthogonalEdgeStyle;" edge="1" parent="1" source="rtPE3BVUv4YDp1QE3gb5-172">
          <mxGeometry width="50" height="50" relative="1" as="geometry">
            <mxPoint x="360" y="1450" as="sourcePoint" />
            <mxPoint x="-182" y="1000" as="targetPoint" />
            <Array as="points">
              <mxPoint x="-100" y="1470" />
              <mxPoint x="-100" y="930" />
              <mxPoint x="-182" y="930" />
            </Array>
          </mxGeometry>
        </mxCell>
        <mxCell id="rtPE3BVUv4YDp1QE3gb5-239" value="" style="endArrow=classic;html=1;rounded=1;exitX=1;exitY=0.5;exitDx=0;exitDy=0;edgeStyle=orthogonalEdgeStyle;" edge="1" parent="1" source="rtPE3BVUv4YDp1QE3gb5-227">
          <mxGeometry width="50" height="50" relative="1" as="geometry">
            <mxPoint x="220" y="1640" as="sourcePoint" />
            <mxPoint x="-182" y="1010" as="targetPoint" />
            <Array as="points">
              <mxPoint x="-120" y="1675" />
              <mxPoint x="-120" y="930" />
              <mxPoint x="-182" y="930" />
            </Array>
          </mxGeometry>
        </mxCell>
        <mxCell id="rtPE3BVUv4YDp1QE3gb5-240" value="Display Settings" style="rounded=1;whiteSpace=wrap;html=1;" vertex="1" parent="1">
          <mxGeometry x="450" y="1930" width="100" height="30" as="geometry" />
        </mxCell>
        <mxCell id="rtPE3BVUv4YDp1QE3gb5-241" value="Yes" style="endArrow=classic;html=1;rounded=1;exitX=0.5;exitY=1;exitDx=0;exitDy=0;entryX=0;entryY=0.5;entryDx=0;entryDy=0;edgeStyle=orthogonalEdgeStyle;" edge="1" parent="1" source="rtPE3BVUv4YDp1QE3gb5-55" target="rtPE3BVUv4YDp1QE3gb5-240">
          <mxGeometry x="-0.9135" width="50" height="50" relative="1" as="geometry">
            <mxPoint x="220" y="1440" as="sourcePoint" />
            <mxPoint x="200" y="1760" as="targetPoint" />
            <mxPoint as="offset" />
          </mxGeometry>
        </mxCell>
        <mxCell id="rtPE3BVUv4YDp1QE3gb5-242" value="" style="ellipse;whiteSpace=wrap;html=1;rounded=1;rotation=90;fillColor=#000000;" vertex="1" parent="1">
          <mxGeometry x="360" y="1980" width="50" height="20" as="geometry" />
        </mxCell>
        <mxCell id="rtPE3BVUv4YDp1QE3gb5-248" value="Edit Characters" style="rhombus;whiteSpace=wrap;html=1;rounded=1;" vertex="1" parent="1">
          <mxGeometry x="65" y="2010" width="76.25" height="80" as="geometry" />
        </mxCell>
        <mxCell id="rtPE3BVUv4YDp1QE3gb5-252" value="Edit&amp;nbsp;&lt;div&gt;bgm&lt;/div&gt;" style="rhombus;whiteSpace=wrap;html=1;rounded=1;" vertex="1" parent="1">
          <mxGeometry x="-70" y="2010" width="57.5" height="60" as="geometry" />
        </mxCell>
        <mxCell id="rtPE3BVUv4YDp1QE3gb5-253" value="Edit profile" style="rhombus;whiteSpace=wrap;html=1;rounded=1;" vertex="1" parent="1">
          <mxGeometry y="2010" width="57.5" height="60" as="geometry" />
        </mxCell>
        <mxCell id="rtPE3BVUv4YDp1QE3gb5-254" value="Press&amp;nbsp;&lt;div&gt;exit&lt;/div&gt;" style="rhombus;whiteSpace=wrap;html=1;rounded=1;" vertex="1" parent="1">
          <mxGeometry x="-130" y="2010" width="57.5" height="60" as="geometry" />
        </mxCell>
        <mxCell id="rtPE3BVUv4YDp1QE3gb5-255" value="" style="endArrow=classic;html=1;rounded=1;exitX=0.5;exitY=1;exitDx=0;exitDy=0;entryX=0.5;entryY=0;entryDx=0;entryDy=0;edgeStyle=orthogonalEdgeStyle;" edge="1" parent="1" source="rtPE3BVUv4YDp1QE3gb5-240" target="rtPE3BVUv4YDp1QE3gb5-242">
          <mxGeometry width="50" height="50" relative="1" as="geometry">
            <mxPoint x="220" y="2060" as="sourcePoint" />
            <mxPoint x="270" y="2010" as="targetPoint" />
          </mxGeometry>
        </mxCell>
        <mxCell id="rtPE3BVUv4YDp1QE3gb5-256" value="" style="endArrow=classic;html=1;rounded=1;exitX=0.5;exitY=1;exitDx=0;exitDy=0;entryX=0.5;entryY=0;entryDx=0;entryDy=0;edgeStyle=orthogonalEdgeStyle;" edge="1" parent="1" source="rtPE3BVUv4YDp1QE3gb5-242" target="rtPE3BVUv4YDp1QE3gb5-266">
          <mxGeometry width="50" height="50" relative="1" as="geometry">
            <mxPoint x="220" y="2060" as="sourcePoint" />
            <mxPoint x="330" y="2010" as="targetPoint" />
          </mxGeometry>
        </mxCell>
        <mxCell id="rtPE3BVUv4YDp1QE3gb5-257" value="" style="endArrow=classic;html=1;rounded=1;exitX=0.5;exitY=1;exitDx=0;exitDy=0;entryX=0.5;entryY=0;entryDx=0;entryDy=0;edgeStyle=orthogonalEdgeStyle;" edge="1" parent="1" source="rtPE3BVUv4YDp1QE3gb5-242" target="rtPE3BVUv4YDp1QE3gb5-265">
          <mxGeometry width="50" height="50" relative="1" as="geometry">
            <mxPoint x="220" y="2060" as="sourcePoint" />
            <mxPoint x="255" y="2010" as="targetPoint" />
          </mxGeometry>
        </mxCell>
        <mxCell id="rtPE3BVUv4YDp1QE3gb5-258" value="" style="endArrow=classic;html=1;rounded=1;exitX=0.5;exitY=1;exitDx=0;exitDy=0;entryX=0.5;entryY=0;entryDx=0;entryDy=0;edgeStyle=orthogonalEdgeStyle;" edge="1" parent="1" source="rtPE3BVUv4YDp1QE3gb5-242" target="rtPE3BVUv4YDp1QE3gb5-264">
          <mxGeometry width="50" height="50" relative="1" as="geometry">
            <mxPoint x="220" y="2060" as="sourcePoint" />
            <mxPoint x="175" y="2010" as="targetPoint" />
          </mxGeometry>
        </mxCell>
        <mxCell id="rtPE3BVUv4YDp1QE3gb5-259" value="" style="endArrow=classic;html=1;rounded=1;exitX=0.5;exitY=1;exitDx=0;exitDy=0;entryX=0.5;entryY=0;entryDx=0;entryDy=0;edgeStyle=orthogonalEdgeStyle;" edge="1" parent="1" source="rtPE3BVUv4YDp1QE3gb5-242" target="rtPE3BVUv4YDp1QE3gb5-248">
          <mxGeometry width="50" height="50" relative="1" as="geometry">
            <mxPoint x="220" y="2060" as="sourcePoint" />
            <mxPoint x="270" y="2010" as="targetPoint" />
          </mxGeometry>
        </mxCell>
        <mxCell id="rtPE3BVUv4YDp1QE3gb5-260" value="" style="endArrow=classic;html=1;rounded=1;exitX=0.5;exitY=1;exitDx=0;exitDy=0;entryX=0.5;entryY=0;entryDx=0;entryDy=0;edgeStyle=orthogonalEdgeStyle;" edge="1" parent="1" source="rtPE3BVUv4YDp1QE3gb5-242" target="rtPE3BVUv4YDp1QE3gb5-253">
          <mxGeometry width="50" height="50" relative="1" as="geometry">
            <mxPoint x="220" y="2060" as="sourcePoint" />
            <mxPoint x="270" y="2010" as="targetPoint" />
          </mxGeometry>
        </mxCell>
        <mxCell id="rtPE3BVUv4YDp1QE3gb5-261" value="" style="endArrow=classic;html=1;rounded=1;exitX=0.5;exitY=1;exitDx=0;exitDy=0;entryX=0.5;entryY=0;entryDx=0;entryDy=0;edgeStyle=orthogonalEdgeStyle;" edge="1" parent="1" source="rtPE3BVUv4YDp1QE3gb5-242" target="rtPE3BVUv4YDp1QE3gb5-252">
          <mxGeometry width="50" height="50" relative="1" as="geometry">
            <mxPoint x="220" y="2060" as="sourcePoint" />
            <mxPoint x="270" y="2010" as="targetPoint" />
          </mxGeometry>
        </mxCell>
        <mxCell id="rtPE3BVUv4YDp1QE3gb5-262" value="" style="endArrow=classic;html=1;rounded=1;exitX=0.5;exitY=1;exitDx=0;exitDy=0;entryX=0.5;entryY=0;entryDx=0;entryDy=0;edgeStyle=orthogonalEdgeStyle;" edge="1" parent="1" source="rtPE3BVUv4YDp1QE3gb5-242" target="rtPE3BVUv4YDp1QE3gb5-254">
          <mxGeometry width="50" height="50" relative="1" as="geometry">
            <mxPoint x="220" y="2060" as="sourcePoint" />
            <mxPoint x="270" y="2010" as="targetPoint" />
          </mxGeometry>
        </mxCell>
        <mxCell id="rtPE3BVUv4YDp1QE3gb5-263" value="Yes" style="endArrow=classic;html=1;rounded=1;exitX=0;exitY=0.5;exitDx=0;exitDy=0;edgeStyle=orthogonalEdgeStyle;entryX=0.5;entryY=1;entryDx=0;entryDy=0;" edge="1" parent="1" source="rtPE3BVUv4YDp1QE3gb5-254" target="rtPE3BVUv4YDp1QE3gb5-107">
          <mxGeometry x="-0.9613" width="50" height="50" relative="1" as="geometry">
            <mxPoint x="220" y="1860" as="sourcePoint" />
            <mxPoint x="370" y="500" as="targetPoint" />
            <Array as="points">
              <mxPoint x="-140" y="2040" />
              <mxPoint x="-140" y="500" />
            </Array>
            <mxPoint as="offset" />
          </mxGeometry>
        </mxCell>
        <mxCell id="rtPE3BVUv4YDp1QE3gb5-45" value="Yes" style="endArrow=classic;html=1;rounded=1;exitX=0.5;exitY=1;exitDx=0;exitDy=0;edgeStyle=orthogonalEdgeStyle;entryX=0.5;entryY=1;entryDx=0;entryDy=0;" edge="1" parent="1" source="rtPE3BVUv4YDp1QE3gb5-42" target="rtPE3BVUv4YDp1QE3gb5-107">
          <mxGeometry x="0.2273" width="50" height="50" relative="1" as="geometry">
            <mxPoint x="240" y="400" as="sourcePoint" />
            <mxPoint x="460" y="540" as="targetPoint" />
            <Array as="points">
              <mxPoint x="310" y="500" />
            </Array>
            <mxPoint as="offset" />
          </mxGeometry>
        </mxCell>
        <mxCell id="rtPE3BVUv4YDp1QE3gb5-264" value="Edit password" style="rhombus;whiteSpace=wrap;html=1;rounded=1;" vertex="1" parent="1">
          <mxGeometry x="141.25" y="2010" width="71.25" height="60" as="geometry" />
        </mxCell>
        <mxCell id="rtPE3BVUv4YDp1QE3gb5-265" value="Edit&amp;nbsp;&lt;div&gt;email&lt;/div&gt;" style="rhombus;whiteSpace=wrap;html=1;rounded=1;" vertex="1" parent="1">
          <mxGeometry x="221.25" y="2010" width="57.5" height="60" as="geometry" />
        </mxCell>
        <mxCell id="rtPE3BVUv4YDp1QE3gb5-266" value="Edit username" style="rhombus;whiteSpace=wrap;html=1;rounded=1;" vertex="1" parent="1">
          <mxGeometry x="285" y="2010" width="75" height="60" as="geometry" />
        </mxCell>
        <mxCell id="rtPE3BVUv4YDp1QE3gb5-268" value="" style="ellipse;whiteSpace=wrap;html=1;rounded=1;rotation=-180;fillColor=#000000;" vertex="1" parent="1">
          <mxGeometry x="237.5" y="2105" width="50" height="20" as="geometry" />
        </mxCell>
        <mxCell id="rtPE3BVUv4YDp1QE3gb5-270" value="Press&amp;nbsp;&lt;div&gt;save&lt;/div&gt;" style="rhombus;whiteSpace=wrap;html=1;rounded=1;" vertex="1" parent="1">
          <mxGeometry x="322.5" y="2085" width="57.5" height="60" as="geometry" />
        </mxCell>
        <mxCell id="rtPE3BVUv4YDp1QE3gb5-271" value="Update database" style="rounded=1;whiteSpace=wrap;html=1;" vertex="1" parent="1">
          <mxGeometry x="445" y="2100" width="100" height="30" as="geometry" />
        </mxCell>
        <mxCell id="rtPE3BVUv4YDp1QE3gb5-272" value="Yes" style="endArrow=classic;html=1;rounded=1;exitX=0.5;exitY=1;exitDx=0;exitDy=0;entryX=0.5;entryY=1;entryDx=0;entryDy=0;edgeStyle=orthogonalEdgeStyle;" edge="1" parent="1" source="rtPE3BVUv4YDp1QE3gb5-266" target="rtPE3BVUv4YDp1QE3gb5-268">
          <mxGeometry x="-0.5789" width="50" height="50" relative="1" as="geometry">
            <mxPoint x="220" y="2060" as="sourcePoint" />
            <mxPoint x="270" y="2010" as="targetPoint" />
            <mxPoint as="offset" />
          </mxGeometry>
        </mxCell>
        <mxCell id="rtPE3BVUv4YDp1QE3gb5-273" value="Yes" style="endArrow=classic;html=1;rounded=1;exitX=0.5;exitY=1;exitDx=0;exitDy=0;edgeStyle=orthogonalEdgeStyle;entryX=0.5;entryY=1;entryDx=0;entryDy=0;" edge="1" parent="1" source="rtPE3BVUv4YDp1QE3gb5-265" target="rtPE3BVUv4YDp1QE3gb5-268">
          <mxGeometry x="-0.5789" width="50" height="50" relative="1" as="geometry">
            <mxPoint x="220" y="2060" as="sourcePoint" />
            <mxPoint x="260" y="2100" as="targetPoint" />
            <mxPoint as="offset" />
          </mxGeometry>
        </mxCell>
        <mxCell id="rtPE3BVUv4YDp1QE3gb5-274" value="Yes" style="endArrow=classic;html=1;rounded=1;exitX=0.5;exitY=1;exitDx=0;exitDy=0;entryX=0.5;entryY=1;entryDx=0;entryDy=0;edgeStyle=orthogonalEdgeStyle;" edge="1" parent="1" source="rtPE3BVUv4YDp1QE3gb5-264" target="rtPE3BVUv4YDp1QE3gb5-268">
          <mxGeometry x="-0.6584" y="-2" width="50" height="50" relative="1" as="geometry">
            <mxPoint x="220" y="2060" as="sourcePoint" />
            <mxPoint x="270" y="2010" as="targetPoint" />
            <mxPoint y="1" as="offset" />
          </mxGeometry>
        </mxCell>
        <mxCell id="rtPE3BVUv4YDp1QE3gb5-275" value="" style="endArrow=classic;html=1;rounded=1;exitX=0;exitY=0.5;exitDx=0;exitDy=0;entryX=0;entryY=0.5;entryDx=0;entryDy=0;" edge="1" parent="1" source="rtPE3BVUv4YDp1QE3gb5-268" target="rtPE3BVUv4YDp1QE3gb5-270">
          <mxGeometry width="50" height="50" relative="1" as="geometry">
            <mxPoint x="220" y="2060" as="sourcePoint" />
            <mxPoint x="270" y="2010" as="targetPoint" />
          </mxGeometry>
        </mxCell>
        <mxCell id="rtPE3BVUv4YDp1QE3gb5-276" value="Yes" style="endArrow=classic;html=1;rounded=1;exitX=1;exitY=0.5;exitDx=0;exitDy=0;entryX=0;entryY=0.5;entryDx=0;entryDy=0;" edge="1" parent="1" source="rtPE3BVUv4YDp1QE3gb5-270" target="rtPE3BVUv4YDp1QE3gb5-271">
          <mxGeometry width="50" height="50" relative="1" as="geometry">
            <mxPoint x="220" y="2060" as="sourcePoint" />
            <mxPoint x="270" y="2010" as="targetPoint" />
          </mxGeometry>
        </mxCell>
        <mxCell id="rtPE3BVUv4YDp1QE3gb5-277" value="Display Settings Characters" style="rounded=1;whiteSpace=wrap;html=1;" vertex="1" parent="1">
          <mxGeometry x="445" y="2160" width="100" height="30" as="geometry" />
        </mxCell>
        <mxCell id="rtPE3BVUv4YDp1QE3gb5-278" value="Yes" style="endArrow=classic;html=1;rounded=1;exitX=0.5;exitY=1;exitDx=0;exitDy=0;entryX=0;entryY=0.5;entryDx=0;entryDy=0;edgeStyle=orthogonalEdgeStyle;" edge="1" parent="1" source="rtPE3BVUv4YDp1QE3gb5-248" target="rtPE3BVUv4YDp1QE3gb5-277">
          <mxGeometry x="-0.8595" width="50" height="50" relative="1" as="geometry">
            <mxPoint x="220" y="2160" as="sourcePoint" />
            <mxPoint x="270" y="2110" as="targetPoint" />
            <mxPoint as="offset" />
          </mxGeometry>
        </mxCell>
        <mxCell id="rtPE3BVUv4YDp1QE3gb5-279" value="" style="endArrow=classic;html=1;rounded=1;exitX=0.575;exitY=-0.033;exitDx=0;exitDy=0;exitPerimeter=0;entryX=0.5;entryY=0;entryDx=0;entryDy=0;edgeStyle=orthogonalEdgeStyle;" edge="1" parent="1" source="rtPE3BVUv4YDp1QE3gb5-277" target="rtPE3BVUv4YDp1QE3gb5-268">
          <mxGeometry width="50" height="50" relative="1" as="geometry">
            <mxPoint x="220" y="2160" as="sourcePoint" />
            <mxPoint x="270" y="2110" as="targetPoint" />
            <Array as="points">
              <mxPoint x="503" y="2150" />
              <mxPoint x="263" y="2150" />
            </Array>
          </mxGeometry>
        </mxCell>
        <mxCell id="rtPE3BVUv4YDp1QE3gb5-280" value="Display Settings Profile" style="rounded=1;whiteSpace=wrap;html=1;" vertex="1" parent="1">
          <mxGeometry x="445" y="2210" width="100" height="30" as="geometry" />
        </mxCell>
        <mxCell id="rtPE3BVUv4YDp1QE3gb5-281" value="" style="ellipse;whiteSpace=wrap;html=1;rounded=1;rotation=90;fillColor=#000000;" vertex="1" parent="1">
          <mxGeometry x="490" y="-85" width="50" height="20" as="geometry" />
        </mxCell>
        <mxCell id="rtPE3BVUv4YDp1QE3gb5-282" value="" style="endArrow=classic;html=1;rounded=1;exitX=0.5;exitY=0;exitDx=0;exitDy=0;entryX=0;entryY=0.5;entryDx=0;entryDy=0;" edge="1" parent="1" source="rtPE3BVUv4YDp1QE3gb5-281" target="rtPE3BVUv4YDp1QE3gb5-9">
          <mxGeometry width="50" height="50" relative="1" as="geometry">
            <mxPoint x="220" y="160" as="sourcePoint" />
            <mxPoint x="270" y="110" as="targetPoint" />
          </mxGeometry>
        </mxCell>
        <mxCell id="rtPE3BVUv4YDp1QE3gb5-283" value="Press Genshin Icons" style="rhombus;whiteSpace=wrap;html=1;rounded=1;" vertex="1" parent="1">
          <mxGeometry x="275" y="2240" width="70" height="70" as="geometry" />
        </mxCell>
        <mxCell id="rtPE3BVUv4YDp1QE3gb5-284" value="" style="ellipse;whiteSpace=wrap;html=1;rounded=1;rotation=90;fillColor=#000000;" vertex="1" parent="1">
          <mxGeometry x="360" y="2215" width="50" height="20" as="geometry" />
        </mxCell>
        <mxCell id="rtPE3BVUv4YDp1QE3gb5-285" value="Upload from computer" style="rhombus;whiteSpace=wrap;html=1;rounded=1;" vertex="1" parent="1">
          <mxGeometry x="170" y="2250" width="90" height="70" as="geometry" />
        </mxCell>
        <mxCell id="rtPE3BVUv4YDp1QE3gb5-286" value="" style="endArrow=classic;html=1;rounded=1;exitX=0;exitY=0.5;exitDx=0;exitDy=0;entryX=0.5;entryY=0;entryDx=0;entryDy=0;" edge="1" parent="1" source="rtPE3BVUv4YDp1QE3gb5-280" target="rtPE3BVUv4YDp1QE3gb5-284">
          <mxGeometry width="50" height="50" relative="1" as="geometry">
            <mxPoint x="220" y="2360" as="sourcePoint" />
            <mxPoint x="270" y="2310" as="targetPoint" />
          </mxGeometry>
        </mxCell>
        <mxCell id="rtPE3BVUv4YDp1QE3gb5-287" value="" style="endArrow=classic;html=1;rounded=1;exitX=0.5;exitY=1;exitDx=0;exitDy=0;entryX=0.5;entryY=0;entryDx=0;entryDy=0;edgeStyle=orthogonalEdgeStyle;" edge="1" parent="1" source="rtPE3BVUv4YDp1QE3gb5-284" target="rtPE3BVUv4YDp1QE3gb5-283">
          <mxGeometry width="50" height="50" relative="1" as="geometry">
            <mxPoint x="220" y="2360" as="sourcePoint" />
            <mxPoint x="270" y="2310" as="targetPoint" />
          </mxGeometry>
        </mxCell>
        <mxCell id="rtPE3BVUv4YDp1QE3gb5-288" value="" style="endArrow=classic;html=1;rounded=1;exitX=0.5;exitY=1;exitDx=0;exitDy=0;entryX=0.5;entryY=0;entryDx=0;entryDy=0;edgeStyle=orthogonalEdgeStyle;" edge="1" parent="1" source="rtPE3BVUv4YDp1QE3gb5-284" target="rtPE3BVUv4YDp1QE3gb5-285">
          <mxGeometry width="50" height="50" relative="1" as="geometry">
            <mxPoint x="220" y="2360" as="sourcePoint" />
            <mxPoint x="270" y="2310" as="targetPoint" />
          </mxGeometry>
        </mxCell>
        <mxCell id="rtPE3BVUv4YDp1QE3gb5-290" value="Press&amp;nbsp;&lt;div&gt;save&lt;/div&gt;" style="rhombus;whiteSpace=wrap;html=1;rounded=1;" vertex="1" parent="1">
          <mxGeometry x="340" y="2300" width="57.5" height="60" as="geometry" />
        </mxCell>
        <mxCell id="rtPE3BVUv4YDp1QE3gb5-291" value="Yes" style="endArrow=classic;html=1;rounded=1;exitX=0.5;exitY=1;exitDx=0;exitDy=0;edgeStyle=orthogonalEdgeStyle;" edge="1" parent="1" source="rtPE3BVUv4YDp1QE3gb5-283">
          <mxGeometry width="50" height="50" relative="1" as="geometry">
            <mxPoint x="220" y="2360" as="sourcePoint" />
            <mxPoint x="346" y="2330" as="targetPoint" />
            <Array as="points">
              <mxPoint x="310" y="2330" />
            </Array>
          </mxGeometry>
        </mxCell>
        <mxCell id="rtPE3BVUv4YDp1QE3gb5-292" value="Yes" style="endArrow=classic;html=1;rounded=1;exitX=0.5;exitY=0;exitDx=0;exitDy=0;entryX=0.5;entryY=0;entryDx=0;entryDy=0;edgeStyle=orthogonalEdgeStyle;" edge="1" parent="1" source="rtPE3BVUv4YDp1QE3gb5-290" target="rtPE3BVUv4YDp1QE3gb5-268">
          <mxGeometry x="-0.8578" width="50" height="50" relative="1" as="geometry">
            <mxPoint x="220" y="2360" as="sourcePoint" />
            <mxPoint x="270" y="2310" as="targetPoint" />
            <mxPoint as="offset" />
          </mxGeometry>
        </mxCell>
        <mxCell id="rtPE3BVUv4YDp1QE3gb5-293" value="Choose file" style="rounded=1;whiteSpace=wrap;html=1;" vertex="1" parent="1">
          <mxGeometry x="240" y="2370" width="100" height="30" as="geometry" />
        </mxCell>
        <mxCell id="rtPE3BVUv4YDp1QE3gb5-295" value="Yes" style="endArrow=classic;html=1;rounded=1;exitX=0.5;exitY=1;exitDx=0;exitDy=0;entryX=0;entryY=0.5;entryDx=0;entryDy=0;edgeStyle=orthogonalEdgeStyle;" edge="1" parent="1" source="rtPE3BVUv4YDp1QE3gb5-285" target="rtPE3BVUv4YDp1QE3gb5-293">
          <mxGeometry x="-0.4545" width="50" height="50" relative="1" as="geometry">
            <mxPoint x="220" y="2460" as="sourcePoint" />
            <mxPoint x="270" y="2410" as="targetPoint" />
            <mxPoint as="offset" />
          </mxGeometry>
        </mxCell>
        <mxCell id="rtPE3BVUv4YDp1QE3gb5-296" value="Crop image" style="rounded=1;whiteSpace=wrap;html=1;" vertex="1" parent="1">
          <mxGeometry x="240" y="2420" width="100" height="30" as="geometry" />
        </mxCell>
        <mxCell id="rtPE3BVUv4YDp1QE3gb5-297" value="Track cropper position" style="rounded=1;whiteSpace=wrap;html=1;" vertex="1" parent="1">
          <mxGeometry x="510" y="2370" width="100" height="30" as="geometry" />
        </mxCell>
        <mxCell id="rtPE3BVUv4YDp1QE3gb5-298" value="Press&amp;nbsp;&lt;div&gt;save&lt;/div&gt;" style="rhombus;whiteSpace=wrap;html=1;rounded=1;" vertex="1" parent="1">
          <mxGeometry x="341.25" y="2460" width="57.5" height="60" as="geometry" />
        </mxCell>
        <mxCell id="rtPE3BVUv4YDp1QE3gb5-299" value="" style="endArrow=classic;html=1;rounded=1;exitX=0.5;exitY=1;exitDx=0;exitDy=0;entryX=0.5;entryY=0;entryDx=0;entryDy=0;" edge="1" parent="1" source="rtPE3BVUv4YDp1QE3gb5-293" target="rtPE3BVUv4YDp1QE3gb5-296">
          <mxGeometry width="50" height="50" relative="1" as="geometry">
            <mxPoint x="220" y="2460" as="sourcePoint" />
            <mxPoint x="270" y="2410" as="targetPoint" />
          </mxGeometry>
        </mxCell>
        <mxCell id="rtPE3BVUv4YDp1QE3gb5-300" value="" style="endArrow=classic;html=1;rounded=1;exitX=1;exitY=0.5;exitDx=0;exitDy=0;entryX=0.5;entryY=1;entryDx=0;entryDy=0;" edge="1" parent="1" source="rtPE3BVUv4YDp1QE3gb5-296" target="rtPE3BVUv4YDp1QE3gb5-301">
          <mxGeometry width="50" height="50" relative="1" as="geometry">
            <mxPoint x="220" y="2460" as="sourcePoint" />
            <mxPoint x="270" y="2410" as="targetPoint" />
          </mxGeometry>
        </mxCell>
        <mxCell id="rtPE3BVUv4YDp1QE3gb5-301" value="" style="ellipse;whiteSpace=wrap;html=1;rounded=1;rotation=90;fillColor=#000000;" vertex="1" parent="1">
          <mxGeometry x="420" y="2425" width="50" height="20" as="geometry" />
        </mxCell>
        <mxCell id="rtPE3BVUv4YDp1QE3gb5-303" value="" style="endArrow=classic;html=1;rounded=1;exitX=0.5;exitY=0;exitDx=0;exitDy=0;entryX=0;entryY=0.5;entryDx=0;entryDy=0;edgeStyle=orthogonalEdgeStyle;" edge="1" parent="1" source="rtPE3BVUv4YDp1QE3gb5-301" target="rtPE3BVUv4YDp1QE3gb5-297">
          <mxGeometry width="50" height="50" relative="1" as="geometry">
            <mxPoint x="220" y="2460" as="sourcePoint" />
            <mxPoint x="270" y="2410" as="targetPoint" />
            <Array as="points">
              <mxPoint x="470" y="2435" />
              <mxPoint x="470" y="2385" />
            </Array>
          </mxGeometry>
        </mxCell>
        <mxCell id="rtPE3BVUv4YDp1QE3gb5-304" value="Track cropper size" style="rounded=1;whiteSpace=wrap;html=1;" vertex="1" parent="1">
          <mxGeometry x="510" y="2420" width="100" height="30" as="geometry" />
        </mxCell>
        <mxCell id="rtPE3BVUv4YDp1QE3gb5-305" value="" style="endArrow=classic;html=1;rounded=1;exitX=0.5;exitY=0;exitDx=0;exitDy=0;entryX=0;entryY=0.5;entryDx=0;entryDy=0;" edge="1" parent="1" source="rtPE3BVUv4YDp1QE3gb5-301" target="rtPE3BVUv4YDp1QE3gb5-304">
          <mxGeometry width="50" height="50" relative="1" as="geometry">
            <mxPoint x="220" y="2460" as="sourcePoint" />
            <mxPoint x="270" y="2410" as="targetPoint" />
          </mxGeometry>
        </mxCell>
        <mxCell id="rtPE3BVUv4YDp1QE3gb5-306" value="" style="endArrow=classic;html=1;rounded=1;exitX=0.5;exitY=0;exitDx=0;exitDy=0;entryX=1;entryY=0.5;entryDx=0;entryDy=0;edgeStyle=orthogonalEdgeStyle;" edge="1" parent="1" source="rtPE3BVUv4YDp1QE3gb5-301" target="rtPE3BVUv4YDp1QE3gb5-298">
          <mxGeometry width="50" height="50" relative="1" as="geometry">
            <mxPoint x="505" y="2510" as="sourcePoint" />
            <mxPoint x="555" y="2460" as="targetPoint" />
          </mxGeometry>
        </mxCell>
        <mxCell id="rtPE3BVUv4YDp1QE3gb5-307" value="Yes" style="endArrow=classic;html=1;rounded=1;exitX=0.5;exitY=0;exitDx=0;exitDy=0;" edge="1" parent="1" source="rtPE3BVUv4YDp1QE3gb5-298" target="rtPE3BVUv4YDp1QE3gb5-290">
          <mxGeometry width="50" height="50" relative="1" as="geometry">
            <mxPoint x="220" y="2360" as="sourcePoint" />
            <mxPoint x="270" y="2310" as="targetPoint" />
          </mxGeometry>
        </mxCell>
        <mxCell id="rtPE3BVUv4YDp1QE3gb5-308" value="Yes" style="endArrow=classic;html=1;rounded=1;exitX=0.5;exitY=1;exitDx=0;exitDy=0;entryX=1;entryY=0.5;entryDx=0;entryDy=0;edgeStyle=orthogonalEdgeStyle;" edge="1" parent="1" source="rtPE3BVUv4YDp1QE3gb5-253" target="rtPE3BVUv4YDp1QE3gb5-280">
          <mxGeometry x="-0.8921" width="50" height="50" relative="1" as="geometry">
            <mxPoint x="220" y="2260" as="sourcePoint" />
            <mxPoint x="270" y="2210" as="targetPoint" />
            <Array as="points">
              <mxPoint x="29" y="2200" />
              <mxPoint x="580" y="2200" />
              <mxPoint x="580" y="2225" />
            </Array>
            <mxPoint as="offset" />
          </mxGeometry>
        </mxCell>
        <mxCell id="rtPE3BVUv4YDp1QE3gb5-309" value="Display Settings Music" style="rounded=1;whiteSpace=wrap;html=1;" vertex="1" parent="1">
          <mxGeometry x="430" y="2540" width="100" height="30" as="geometry" />
        </mxCell>
        <mxCell id="rtPE3BVUv4YDp1QE3gb5-310" value="Yes" style="endArrow=classic;html=1;rounded=1;exitX=0.5;exitY=1;exitDx=0;exitDy=0;entryX=0;entryY=0.5;entryDx=0;entryDy=0;edgeStyle=orthogonalEdgeStyle;" edge="1" parent="1" source="rtPE3BVUv4YDp1QE3gb5-252" target="rtPE3BVUv4YDp1QE3gb5-309">
          <mxGeometry x="-0.8954" width="50" height="50" relative="1" as="geometry">
            <mxPoint x="220" y="2360" as="sourcePoint" />
            <mxPoint x="270" y="2310" as="targetPoint" />
            <mxPoint as="offset" />
          </mxGeometry>
        </mxCell>
        <mxCell id="rtPE3BVUv4YDp1QE3gb5-311" value="Track checkbox" style="rounded=1;whiteSpace=wrap;html=1;" vertex="1" parent="1">
          <mxGeometry x="565" y="2540" width="100" height="30" as="geometry" />
        </mxCell>
        <mxCell id="rtPE3BVUv4YDp1QE3gb5-312" value="Checkbox&amp;nbsp;&lt;div&gt;&amp;gt;5&lt;/div&gt;" style="rhombus;whiteSpace=wrap;html=1;rounded=1;" vertex="1" parent="1">
          <mxGeometry x="690" y="2517.5" width="70" height="75" as="geometry" />
        </mxCell>
        <mxCell id="rtPE3BVUv4YDp1QE3gb5-313" value="Cannot tick" style="rounded=1;whiteSpace=wrap;html=1;" vertex="1" parent="1">
          <mxGeometry x="750" y="2610" width="65" height="30" as="geometry" />
        </mxCell>
        <mxCell id="rtPE3BVUv4YDp1QE3gb5-314" value="Can tick" style="rounded=1;whiteSpace=wrap;html=1;" vertex="1" parent="1">
          <mxGeometry x="660" y="2610" width="60" height="30" as="geometry" />
        </mxCell>
        <mxCell id="rtPE3BVUv4YDp1QE3gb5-315" value="" style="endArrow=classic;html=1;rounded=1;exitX=1;exitY=0.5;exitDx=0;exitDy=0;entryX=0;entryY=0.5;entryDx=0;entryDy=0;" edge="1" parent="1" source="rtPE3BVUv4YDp1QE3gb5-309" target="rtPE3BVUv4YDp1QE3gb5-311">
          <mxGeometry width="50" height="50" relative="1" as="geometry">
            <mxPoint x="500" y="2560" as="sourcePoint" />
            <mxPoint x="550" y="2510" as="targetPoint" />
          </mxGeometry>
        </mxCell>
        <mxCell id="rtPE3BVUv4YDp1QE3gb5-316" value="" style="endArrow=classic;html=1;rounded=1;exitX=1;exitY=0.5;exitDx=0;exitDy=0;entryX=0;entryY=0.5;entryDx=0;entryDy=0;" edge="1" parent="1" source="rtPE3BVUv4YDp1QE3gb5-311" target="rtPE3BVUv4YDp1QE3gb5-312">
          <mxGeometry width="50" height="50" relative="1" as="geometry">
            <mxPoint x="500" y="2560" as="sourcePoint" />
            <mxPoint x="550" y="2510" as="targetPoint" />
          </mxGeometry>
        </mxCell>
        <mxCell id="rtPE3BVUv4YDp1QE3gb5-317" value="No" style="endArrow=classic;html=1;rounded=1;exitX=0;exitY=1;exitDx=0;exitDy=0;entryX=0.5;entryY=0;entryDx=0;entryDy=0;edgeStyle=orthogonalEdgeStyle;" edge="1" parent="1" source="rtPE3BVUv4YDp1QE3gb5-312" target="rtPE3BVUv4YDp1QE3gb5-314">
          <mxGeometry width="50" height="50" relative="1" as="geometry">
            <mxPoint x="500" y="2560" as="sourcePoint" />
            <mxPoint x="550" y="2510" as="targetPoint" />
            <Array as="points">
              <mxPoint x="690" y="2574" />
            </Array>
          </mxGeometry>
        </mxCell>
        <mxCell id="rtPE3BVUv4YDp1QE3gb5-318" value="Yes" style="endArrow=classic;html=1;rounded=1;exitX=1;exitY=1;exitDx=0;exitDy=0;entryX=0.5;entryY=0;entryDx=0;entryDy=0;edgeStyle=orthogonalEdgeStyle;" edge="1" parent="1" source="rtPE3BVUv4YDp1QE3gb5-312" target="rtPE3BVUv4YDp1QE3gb5-313">
          <mxGeometry x="0.4782" width="50" height="50" relative="1" as="geometry">
            <mxPoint x="500" y="2560" as="sourcePoint" />
            <mxPoint x="550" y="2510" as="targetPoint" />
            <Array as="points">
              <mxPoint x="783" y="2574" />
              <mxPoint x="783" y="2600" />
            </Array>
            <mxPoint as="offset" />
          </mxGeometry>
        </mxCell>
        <mxCell id="rtPE3BVUv4YDp1QE3gb5-319" value="" style="endArrow=classic;html=1;rounded=1;exitX=0.5;exitY=0;exitDx=0;exitDy=0;entryX=1;entryY=0.5;entryDx=0;entryDy=0;edgeStyle=orthogonalEdgeStyle;" edge="1" parent="1" source="rtPE3BVUv4YDp1QE3gb5-309" target="rtPE3BVUv4YDp1QE3gb5-268">
          <mxGeometry width="50" height="50" relative="1" as="geometry">
            <mxPoint x="500" y="2360" as="sourcePoint" />
            <mxPoint x="550" y="2310" as="targetPoint" />
            <Array as="points">
              <mxPoint x="480" y="2520" />
              <mxPoint x="160" y="2520" />
              <mxPoint x="160" y="2115" />
            </Array>
          </mxGeometry>
        </mxCell>
        <mxCell id="rtPE3BVUv4YDp1QE3gb5-320" value="Close App" style="rounded=1;whiteSpace=wrap;html=1;" vertex="1" parent="1">
          <mxGeometry x="145" y="2620" width="100" height="30" as="geometry" />
        </mxCell>
        <mxCell id="rtPE3BVUv4YDp1QE3gb5-322" value="" style="ellipse;whiteSpace=wrap;html=1;aspect=fixed;rounded=1;fillColor=#000000;" vertex="1" parent="1">
          <mxGeometry x="180" y="2690" width="30" height="30" as="geometry" />
        </mxCell>
        <mxCell id="rtPE3BVUv4YDp1QE3gb5-324" value="" style="endArrow=classic;html=1;rounded=1;exitX=0.5;exitY=1;exitDx=0;exitDy=0;entryX=0.5;entryY=0;entryDx=0;entryDy=0;" edge="1" parent="1" source="rtPE3BVUv4YDp1QE3gb5-320" target="rtPE3BVUv4YDp1QE3gb5-323">
          <mxGeometry width="50" height="50" relative="1" as="geometry">
            <mxPoint x="220" y="2810" as="sourcePoint" />
            <mxPoint x="270" y="2760" as="targetPoint" />
          </mxGeometry>
        </mxCell>
        <mxCell id="rtPE3BVUv4YDp1QE3gb5-325" value="" style="endArrow=classic;html=1;rounded=1;entryX=0;entryY=0.5;entryDx=0;entryDy=0;exitX=0;exitY=0.5;exitDx=0;exitDy=0;edgeStyle=orthogonalEdgeStyle;" edge="1" parent="1" source="rtPE3BVUv4YDp1QE3gb5-7" target="rtPE3BVUv4YDp1QE3gb5-320">
          <mxGeometry width="50" height="50" relative="1" as="geometry">
            <mxPoint x="220" y="2510" as="sourcePoint" />
            <mxPoint x="270" y="2460" as="targetPoint" />
            <Array as="points">
              <mxPoint x="-230" y="-125" />
              <mxPoint x="-230" y="2635" />
            </Array>
          </mxGeometry>
        </mxCell>
      </root>
    </mxGraphModel>
  </diagram>
</mxfile>
